<svg width="995" height="273" viewBox="0 0 995 273" fill="none" xmlns="http://www.w3.org/2000/svg">
<path d="M262.696 197.372C265.683 197.372 267.912 198.14 269.384 199.676C270.877 201.212 271.624 203.463 271.624 206.428C271.624 208.86 271.165 210.919 270.248 212.604C269.352 214.289 268.125 215.559 266.568 216.412C265.011 217.244 263.272 217.66 261.352 217.66C260.797 217.66 259.795 217.639 258.344 217.596C257.235 217.532 256.136 217.5 255.048 217.5V216.412C255.688 216.369 256.157 216.284 256.456 216.156C256.776 216.007 256.989 215.772 257.096 215.452C257.203 215.111 257.256 214.588 257.256 213.884V201.148C257.256 200.444 257.203 199.932 257.096 199.612C256.989 199.271 256.776 199.025 256.456 198.876C256.157 198.727 255.688 198.641 255.048 198.62V197.5C256.285 197.5 257.693 197.479 259.272 197.436C260.68 197.393 261.821 197.372 262.696 197.372ZM259.72 198.876V216.156H262.12C264.659 216.156 266.429 215.356 267.432 213.756C268.456 212.156 268.968 209.852 268.968 206.844C268.968 201.532 266.664 198.876 262.056 198.876H259.72ZM289.166 215.164C289.294 215.569 289.507 215.889 289.806 216.124C290.126 216.337 290.595 216.455 291.214 216.476V217.596C290.489 217.553 290.041 217.532 289.87 217.532C288.91 217.468 288.217 217.436 287.79 217.436C287.342 217.436 286.67 217.468 285.774 217.532C285.603 217.532 285.198 217.553 284.558 217.596V216.476C285.305 216.433 285.827 216.359 286.126 216.252C286.425 216.145 286.574 215.9 286.574 215.516C286.574 215.324 286.521 215.047 286.414 214.684L285.422 211.548H278.734L277.774 214.716C277.689 214.993 277.646 215.249 277.646 215.484C277.646 215.847 277.795 216.092 278.094 216.22C278.414 216.348 278.937 216.433 279.662 216.476V217.596L278.222 217.5C277.369 217.457 276.91 217.436 276.846 217.436C276.761 217.436 276.291 217.457 275.438 217.5L273.838 217.596V216.476C274.414 216.455 274.873 216.327 275.214 216.092C275.577 215.836 275.822 215.516 275.95 215.132L281.422 197.404H283.438L289.166 215.164ZM285.006 210.236L282.03 200.892H281.902L279.118 210.236H285.006ZM307.932 198.556C307.079 198.577 306.535 198.929 306.3 199.612L300.508 217.5H298.556L292.54 199.324C292.476 199.068 292.337 198.887 292.124 198.78C291.911 198.652 291.559 198.577 291.068 198.556V197.436C292.497 197.521 293.521 197.564 294.14 197.564C294.78 197.564 295.9 197.521 297.5 197.436V198.556C296.689 198.599 296.113 198.673 295.772 198.78C295.452 198.887 295.292 199.132 295.292 199.516C295.292 199.687 295.345 199.932 295.452 200.252L299.964 213.852H300.06L304.316 200.476C304.401 200.22 304.444 199.975 304.444 199.74C304.444 199.313 304.263 199.025 303.9 198.876C303.559 198.705 303.025 198.599 302.3 198.556V197.436C303.772 197.521 304.711 197.564 305.116 197.564C305.543 197.564 306.481 197.521 307.932 197.436V198.556ZM318.331 198.556C317.585 198.577 317.041 198.663 316.699 198.812C316.358 198.94 316.134 199.175 316.027 199.516C315.921 199.836 315.867 200.359 315.867 201.084V216.124H318.075C319.846 216.124 321.147 215.793 321.979 215.132C322.811 214.449 323.387 213.308 323.707 211.708H324.827L323.643 217.66C322.086 217.553 320.187 217.5 317.947 217.5H314.651C313.499 217.5 312.347 217.532 311.195 217.596V216.476C311.835 216.455 312.305 216.369 312.603 216.22C312.923 216.071 313.137 215.836 313.243 215.516C313.35 215.175 313.403 214.652 313.403 213.948V201.084C313.403 200.38 313.35 199.857 313.243 199.516C313.137 199.175 312.923 198.94 312.603 198.812C312.305 198.663 311.835 198.577 311.195 198.556V197.436C312.177 197.479 312.774 197.5 312.987 197.5C313.969 197.543 314.555 197.564 314.747 197.564C314.982 197.564 315.59 197.543 316.571 197.5C316.806 197.5 317.393 197.479 318.331 197.436V198.556ZM342.188 215.164C342.316 215.569 342.53 215.889 342.828 216.124C343.148 216.337 343.618 216.455 344.236 216.476V217.596C343.511 217.553 343.063 217.532 342.892 217.532C341.932 217.468 341.239 217.436 340.812 217.436C340.364 217.436 339.692 217.468 338.796 217.532C338.626 217.532 338.22 217.553 337.58 217.596V216.476C338.327 216.433 338.85 216.359 339.148 216.252C339.447 216.145 339.596 215.9 339.596 215.516C339.596 215.324 339.543 215.047 339.436 214.684L338.444 211.548H331.756L330.796 214.716C330.711 214.993 330.668 215.249 330.668 215.484C330.668 215.847 330.818 216.092 331.116 216.22C331.436 216.348 331.959 216.433 332.684 216.476V217.596L331.244 217.5C330.391 217.457 329.932 217.436 329.868 217.436C329.783 217.436 329.314 217.457 328.46 217.5L326.86 217.596V216.476C327.436 216.455 327.895 216.327 328.236 216.092C328.599 215.836 328.844 215.516 328.972 215.132L334.444 197.404H336.46L342.188 215.164ZM338.028 210.236L335.052 200.892H334.924L332.14 210.236H338.028ZM360.642 203.004H359.522C359.245 201.873 358.968 201.031 358.69 200.476C358.413 199.921 357.976 199.505 357.378 199.228C356.802 198.929 355.949 198.78 354.818 198.78H354.306V213.948C354.306 214.652 354.36 215.175 354.466 215.516C354.573 215.857 354.797 216.103 355.138 216.252C355.48 216.38 356.013 216.455 356.738 216.476V217.596L355.714 217.532C354.541 217.468 353.656 217.436 353.058 217.436C352.504 217.436 351.65 217.468 350.498 217.532L349.41 217.596V216.476C350.136 216.455 350.658 216.38 350.978 216.252C351.32 216.103 351.544 215.857 351.65 215.516C351.778 215.175 351.842 214.652 351.842 213.948V198.78H351.298C350.168 198.78 349.304 198.929 348.706 199.228C348.109 199.505 347.672 199.921 347.394 200.476C347.117 201.031 346.84 201.873 346.562 203.004H345.474L345.858 197.372C347.672 197.457 349.474 197.5 351.266 197.5H354.882C356.632 197.5 358.434 197.457 360.29 197.372L360.642 203.004ZM384.461 202.94H383.373C383.159 201.895 382.882 201.084 382.541 200.508C382.221 199.932 381.762 199.516 381.165 199.26C380.589 199.004 379.789 198.876 378.765 198.876H376.429V206.972H377.453C378.391 206.972 379.074 206.812 379.501 206.492C379.949 206.172 380.194 205.564 380.237 204.668H381.325C381.282 205.351 381.261 205.777 381.261 205.948C381.197 206.716 381.165 207.292 381.165 207.676L381.229 209.468L381.325 211.036H380.237C380.194 209.948 379.949 209.223 379.501 208.86C379.074 208.497 378.391 208.316 377.453 208.316H376.429V213.948C376.429 214.652 376.482 215.175 376.589 215.516C376.695 215.857 376.919 216.103 377.261 216.252C377.602 216.38 378.146 216.455 378.893 216.476V217.596L377.709 217.532C376.663 217.468 375.863 217.436 375.309 217.436C374.818 217.436 374.039 217.468 372.973 217.532L371.757 217.596V216.476C372.397 216.455 372.866 216.369 373.165 216.22C373.485 216.071 373.698 215.836 373.805 215.516C373.911 215.175 373.965 214.652 373.965 213.948V201.084C373.965 200.38 373.911 199.857 373.805 199.516C373.698 199.175 373.485 198.94 373.165 198.812C372.866 198.663 372.397 198.577 371.757 198.556V197.436C372.909 197.479 374.061 197.5 375.213 197.5H378.669C380.909 197.5 382.711 197.457 384.077 197.372L384.461 202.94ZM404.524 198.556C403.884 198.577 403.404 198.663 403.084 198.812C402.785 198.94 402.583 199.175 402.476 199.516C402.369 199.857 402.316 200.38 402.316 201.084V211.132C402.316 213.201 401.825 214.855 400.844 216.092C399.863 217.308 398.337 217.916 396.268 217.916C393.857 217.916 392.183 217.276 391.244 215.996C390.305 214.695 389.836 212.913 389.836 210.652V201.084C389.836 200.38 389.783 199.857 389.676 199.516C389.569 199.175 389.367 198.94 389.068 198.812C388.769 198.663 388.289 198.577 387.628 198.556V197.436C388.524 197.479 389.079 197.5 389.292 197.5C390.273 197.543 390.871 197.564 391.084 197.564C391.319 197.564 391.927 197.543 392.908 197.5C393.121 197.5 393.655 197.479 394.508 197.436V198.556C393.847 198.577 393.356 198.663 393.036 198.812C392.737 198.94 392.535 199.175 392.428 199.516C392.321 199.857 392.268 200.38 392.268 201.084V211.164C392.268 214.556 393.751 216.252 396.716 216.252C397.975 216.252 398.956 215.847 399.66 215.036C400.385 214.204 400.748 213.041 400.748 211.548V201.084C400.748 200.38 400.695 199.857 400.588 199.516C400.481 199.175 400.279 198.94 399.98 198.812C399.681 198.663 399.201 198.577 398.54 198.556V197.436L400.332 197.532L401.548 197.564C401.676 197.564 402.103 197.543 402.828 197.5C402.977 197.5 403.543 197.479 404.524 197.436V198.556ZM423.275 219.452C423.894 219.729 424.47 219.921 425.003 220.028C425.537 220.156 426.209 220.22 427.019 220.22V221.276C425.953 221.831 424.961 222.108 424.043 222.108C423.126 222.108 422.209 221.831 421.291 221.276L415.531 217.884H415.307C412.918 217.884 411.115 217.095 409.899 215.516C408.683 213.916 408.075 211.601 408.075 208.572C408.075 206.033 408.438 203.9 409.163 202.172C409.91 200.423 410.902 199.132 412.139 198.3C413.398 197.447 414.806 197.02 416.363 197.02C418.753 197.02 420.555 197.809 421.771 199.388C422.987 200.967 423.595 203.271 423.595 206.3C423.595 209.415 423.041 211.932 421.931 213.852C420.822 215.751 419.361 216.988 417.547 217.564C418.23 217.585 418.838 217.66 419.371 217.788C419.905 217.916 420.47 218.129 421.067 218.428L423.275 219.452ZM410.731 208.156C410.731 210.716 411.169 212.753 412.043 214.268C412.918 215.761 414.326 216.508 416.267 216.508C417.91 216.508 419.094 215.601 419.819 213.788C420.566 211.953 420.939 209.596 420.939 206.716C420.939 201.191 419.105 198.428 415.435 198.428C413.771 198.428 412.566 199.335 411.819 201.148C411.094 202.94 410.731 205.276 410.731 208.156ZM441.14 215.164C441.268 215.569 441.481 215.889 441.78 216.124C442.1 216.337 442.569 216.455 443.188 216.476V217.596C442.462 217.553 442.014 217.532 441.844 217.532C440.884 217.468 440.19 217.436 439.764 217.436C439.316 217.436 438.644 217.468 437.748 217.532C437.577 217.532 437.172 217.553 436.532 217.596V216.476C437.278 216.433 437.801 216.359 438.1 216.252C438.398 216.145 438.548 215.9 438.548 215.516C438.548 215.324 438.494 215.047 438.388 214.684L437.396 211.548H430.708L429.748 214.716C429.662 214.993 429.62 215.249 429.62 215.484C429.62 215.847 429.769 216.092 430.068 216.22C430.388 216.348 430.91 216.433 431.636 216.476V217.596L430.196 217.5C429.342 217.457 428.884 217.436 428.82 217.436C428.734 217.436 428.265 217.457 427.412 217.5L425.812 217.596V216.476C426.388 216.455 426.846 216.327 427.188 216.092C427.55 215.836 427.796 215.516 427.924 215.132L433.396 197.404H435.412L441.14 215.164ZM436.98 210.236L434.004 200.892H433.876L431.092 210.236H436.98ZM458.958 214.652C459.257 215.185 459.609 215.623 460.014 215.964C460.441 216.284 461.059 216.455 461.87 216.476V217.596C460.91 217.532 459.833 217.5 458.638 217.5H457.582L452.878 208.284H452.238L450.99 208.252V213.948C450.99 214.652 451.043 215.175 451.15 215.516C451.257 215.857 451.481 216.103 451.822 216.252C452.163 216.38 452.707 216.455 453.454 216.476V217.596C451.577 217.489 450.361 217.436 449.806 217.436C449.251 217.436 448.089 217.489 446.318 217.596V216.476C446.958 216.455 447.427 216.369 447.726 216.22C448.046 216.071 448.259 215.836 448.366 215.516C448.473 215.175 448.526 214.652 448.526 213.948V201.052C448.526 200.348 448.473 199.825 448.366 199.484C448.259 199.143 448.046 198.908 447.726 198.78C447.427 198.631 446.958 198.545 446.318 198.524V197.564C446.873 197.564 448.078 197.532 449.934 197.468C450.702 197.404 451.523 197.372 452.398 197.372C454.766 197.372 456.558 197.852 457.774 198.812C459.011 199.751 459.63 201.009 459.63 202.588C459.63 203.953 459.278 205.095 458.574 206.012C457.87 206.908 456.814 207.537 455.406 207.9L458.958 214.652ZM450.99 206.812C451.566 206.897 452.206 206.94 452.91 206.94C453.742 206.94 454.467 206.748 455.086 206.364C455.726 205.98 456.217 205.479 456.558 204.86C456.899 204.22 457.07 203.548 457.07 202.844C457.07 201.649 456.707 200.7 455.982 199.996C455.278 199.271 454.147 198.908 452.59 198.908H450.99V206.812ZM472.729 197.02C475.119 197.02 476.921 197.809 478.137 199.388C479.353 200.967 479.961 203.271 479.961 206.3C479.961 208.817 479.588 210.951 478.841 212.7C478.116 214.449 477.124 215.751 475.865 216.604C474.607 217.457 473.209 217.884 471.673 217.884C469.284 217.884 467.481 217.095 466.265 215.516C465.049 213.916 464.441 211.601 464.441 208.572C464.441 206.033 464.804 203.9 465.529 202.172C466.276 200.423 467.268 199.132 468.505 198.3C469.764 197.447 471.172 197.02 472.729 197.02ZM471.801 198.428C470.137 198.428 468.932 199.335 468.185 201.148C467.46 202.94 467.097 205.276 467.097 208.156C467.097 210.716 467.535 212.753 468.409 214.268C469.284 215.761 470.692 216.508 472.633 216.508C474.276 216.508 475.46 215.601 476.185 213.788C476.932 211.953 477.305 209.596 477.305 206.716C477.305 201.191 475.471 198.428 471.801 198.428ZM490.657 198.556C489.91 198.577 489.366 198.663 489.025 198.812C488.683 198.94 488.459 199.175 488.353 199.516C488.246 199.836 488.193 200.359 488.193 201.084V216.124H490.401C492.171 216.124 493.473 215.793 494.305 215.132C495.137 214.449 495.713 213.308 496.033 211.708H497.153L495.969 217.66C494.411 217.553 492.513 217.5 490.273 217.5H486.977C485.825 217.5 484.673 217.532 483.521 217.596V216.476C484.161 216.455 484.63 216.369 484.929 216.22C485.249 216.071 485.462 215.836 485.569 215.516C485.675 215.175 485.729 214.652 485.729 213.948V201.084C485.729 200.38 485.675 199.857 485.569 199.516C485.462 199.175 485.249 198.94 484.929 198.812C484.63 198.663 484.161 198.577 483.521 198.556V197.436C484.502 197.479 485.099 197.5 485.313 197.5C486.294 197.543 486.881 197.564 487.073 197.564C487.307 197.564 487.915 197.543 488.897 197.5C489.131 197.5 489.718 197.479 490.657 197.436V198.556ZM507.345 198.556C506.684 198.577 506.193 198.663 505.873 198.812C505.575 198.94 505.372 199.175 505.265 199.516C505.18 199.836 505.137 200.359 505.137 201.084V213.948C505.137 214.652 505.18 215.175 505.265 215.516C505.372 215.857 505.575 216.103 505.873 216.252C506.193 216.38 506.684 216.455 507.345 216.476V217.596L506.385 217.532C505.297 217.468 504.476 217.436 503.921 217.436C503.388 217.436 502.577 217.468 501.489 217.532L500.465 217.596V216.476C501.105 216.455 501.575 216.369 501.873 216.22C502.193 216.071 502.407 215.836 502.513 215.516C502.62 215.175 502.673 214.652 502.673 213.948V201.084C502.673 200.38 502.62 199.857 502.513 199.516C502.407 199.175 502.193 198.94 501.873 198.812C501.575 198.663 501.105 198.577 500.465 198.556V197.436C501.361 197.479 501.916 197.5 502.129 197.5C503.111 197.543 503.708 197.564 503.921 197.564C504.156 197.564 504.764 197.543 505.745 197.5C505.959 197.5 506.492 197.479 507.345 197.436V198.556ZM525.611 214.94C525.931 215.452 526.304 215.815 526.731 216.028C527.158 216.241 527.744 216.369 528.491 216.412V217.5C527.68 217.457 527.094 217.436 526.731 217.436C526.091 217.436 525.302 217.457 524.363 217.5L518.411 207.932L516.395 210.3V213.948C516.395 214.652 516.438 215.175 516.523 215.516C516.63 215.857 516.832 216.103 517.131 216.252C517.451 216.38 517.942 216.455 518.603 216.476V217.596L517.643 217.532C516.555 217.468 515.734 217.436 515.179 217.436C514.646 217.436 513.835 217.468 512.747 217.532L511.723 217.596V216.476C512.363 216.455 512.832 216.369 513.131 216.22C513.451 216.071 513.664 215.836 513.771 215.516C513.878 215.175 513.931 214.652 513.931 213.948V201.084C513.931 200.38 513.878 199.857 513.771 199.516C513.664 199.175 513.451 198.94 513.131 198.812C512.832 198.663 512.363 198.577 511.723 198.556V197.436C512.619 197.479 513.174 197.5 513.387 197.5C514.368 197.543 514.966 197.564 515.179 197.564C515.414 197.564 516.022 197.543 517.003 197.5C517.216 197.5 517.75 197.479 518.603 197.436V198.556C517.942 198.577 517.451 198.663 517.131 198.812C516.832 198.94 516.63 199.175 516.523 199.516C516.438 199.836 516.395 200.359 516.395 201.084V208.22L522.763 200.604C523.104 200.199 523.275 199.847 523.275 199.548C523.275 199.249 523.104 199.015 522.763 198.844C522.443 198.673 521.952 198.577 521.291 198.556V197.436C522.23 197.479 522.795 197.5 522.987 197.5C523.84 197.543 524.363 197.564 524.555 197.564C524.726 197.564 525.238 197.543 526.091 197.5C526.262 197.5 526.795 197.479 527.691 197.436V198.556C527.179 198.556 526.72 198.684 526.315 198.94C525.931 199.196 525.547 199.548 525.163 199.996L520.043 206.012L525.611 214.94ZM552.956 215.196C553.383 216.028 554.108 216.455 555.132 216.476V217.596C553.532 217.489 552.402 217.436 551.74 217.436C551.058 217.436 549.97 217.489 548.476 217.596V216.476C549.074 216.455 549.511 216.401 549.788 216.316C550.066 216.209 550.204 216.028 550.204 215.772C550.204 215.537 550.076 215.196 549.82 214.748L546.364 209.02L542.78 214.524C542.503 214.951 542.364 215.313 542.364 215.612C542.364 215.868 542.492 216.071 542.748 216.22C543.004 216.348 543.388 216.433 543.9 216.476V217.596C542.556 217.489 541.628 217.436 541.116 217.436C540.583 217.436 539.676 217.489 538.396 217.596V216.476C538.887 216.476 539.335 216.337 539.74 216.06C540.146 215.761 540.476 215.431 540.732 215.068L545.404 207.836L540.316 199.324C540.146 199.068 539.964 198.887 539.772 198.78C539.58 198.652 539.207 198.577 538.652 198.556V197.436L539.676 197.5C540.914 197.543 541.703 197.564 542.044 197.564C542.727 197.564 543.516 197.532 544.412 197.468L545.308 197.436V198.556C544.668 198.577 544.188 198.641 543.868 198.748C543.548 198.855 543.388 199.047 543.388 199.324C543.388 199.58 543.506 199.889 543.74 200.252L547.036 205.82L550.588 200.444C550.866 200.081 551.004 199.761 551.004 199.484C551.004 198.908 550.396 198.599 549.18 198.556V197.436C550.546 197.521 551.42 197.564 551.804 197.564C552.402 197.564 553.116 197.532 553.948 197.468L554.652 197.436V198.556C554.226 198.556 553.874 198.641 553.596 198.812C553.34 198.983 553.106 199.228 552.892 199.548L547.996 206.972L552.956 215.196ZM565.219 198.556C564.558 198.577 564.067 198.663 563.747 198.812C563.449 198.94 563.246 199.175 563.139 199.516C563.054 199.836 563.011 200.359 563.011 201.084V213.948C563.011 214.652 563.054 215.175 563.139 215.516C563.246 215.857 563.449 216.103 563.747 216.252C564.067 216.38 564.558 216.455 565.219 216.476V217.596L564.259 217.532C563.171 217.468 562.35 217.436 561.795 217.436C561.262 217.436 560.451 217.468 559.363 217.532L558.339 217.596V216.476C558.979 216.455 559.449 216.369 559.747 216.22C560.067 216.071 560.281 215.836 560.387 215.516C560.494 215.175 560.547 214.652 560.547 213.948V201.084C560.547 200.38 560.494 199.857 560.387 199.516C560.281 199.175 560.067 198.94 559.747 198.812C559.449 198.663 558.979 198.577 558.339 198.556V197.436C559.235 197.479 559.79 197.5 560.003 197.5C560.985 197.543 561.582 197.564 561.795 197.564C562.03 197.564 562.638 197.543 563.619 197.5C563.833 197.5 564.366 197.479 565.219 197.436V198.556ZM569.629 197.372C570.994 197.457 572.807 197.5 575.069 197.5H582.045V198.876L571.997 216.124H576.093C577.415 216.103 578.439 215.921 579.165 215.58C579.911 215.239 580.455 214.791 580.797 214.236C581.159 213.66 581.469 212.903 581.725 211.964H582.845L581.725 217.66C580.125 217.553 578.226 217.5 576.029 217.5H569.053V216.444L579.229 198.876H574.941C573.917 198.876 573.117 198.993 572.541 199.228C571.965 199.441 571.506 199.815 571.165 200.348C570.845 200.881 570.567 201.66 570.333 202.684H569.245L569.629 197.372ZM607.828 198.652C607.23 198.652 606.718 198.833 606.292 199.196C605.865 199.537 605.684 200.081 605.748 200.828L606.676 213.948C606.74 214.673 606.825 215.207 606.932 215.548C607.038 215.868 607.23 216.103 607.508 216.252C607.806 216.38 608.276 216.455 608.916 216.476V217.596L607.956 217.532C606.868 217.468 606.046 217.436 605.492 217.436C604.937 217.436 604.116 217.468 603.028 217.532L602.068 217.596V216.476C602.921 216.433 603.497 216.284 603.796 216.028C604.116 215.772 604.276 215.271 604.276 214.524L604.244 213.948L603.412 202.204L597.172 217.724C596.916 217.724 596.692 217.724 596.5 217.724C596.329 217.745 596.212 217.745 596.148 217.724L589.908 201.628L589.172 213.532C589.108 214.535 589.246 215.271 589.588 215.74C589.929 216.209 590.526 216.455 591.38 216.476V217.596L590.036 217.5C589.012 217.457 588.457 217.436 588.372 217.436C588.265 217.436 587.742 217.457 586.804 217.5L585.364 217.596V216.476C586.153 216.455 586.697 216.22 586.996 215.772C587.316 215.324 587.508 214.577 587.572 213.532L588.436 201.02C588.478 200.167 588.286 199.559 587.86 199.196C587.454 198.812 586.953 198.62 586.356 198.62V197.5C586.889 197.521 587.625 197.532 588.564 197.532C589.481 197.532 590.174 197.521 590.644 197.5L597.14 213.596L603.796 197.5C604.734 197.543 605.449 197.564 605.94 197.564C606.302 197.564 606.932 197.543 607.828 197.5V198.652ZM626.41 215.164C626.538 215.569 626.751 215.889 627.05 216.124C627.37 216.337 627.839 216.455 628.458 216.476V217.596C627.732 217.553 627.284 217.532 627.114 217.532C626.154 217.468 625.46 217.436 625.034 217.436C624.586 217.436 623.914 217.468 623.018 217.532C622.847 217.532 622.442 217.553 621.802 217.596V216.476C622.548 216.433 623.071 216.359 623.37 216.252C623.668 216.145 623.818 215.9 623.818 215.516C623.818 215.324 623.764 215.047 623.658 214.684L622.666 211.548H615.978L615.018 214.716C614.932 214.993 614.89 215.249 614.89 215.484C614.89 215.847 615.039 216.092 615.338 216.22C615.658 216.348 616.18 216.433 616.906 216.476V217.596L615.466 217.5C614.612 217.457 614.154 217.436 614.09 217.436C614.004 217.436 613.535 217.457 612.682 217.5L611.082 217.596V216.476C611.658 216.455 612.116 216.327 612.458 216.092C612.82 215.836 613.066 215.516 613.194 215.132L618.666 197.404H620.682L626.41 215.164ZM622.25 210.236L619.274 200.892H619.146L616.362 210.236H622.25ZM644.864 203.004H643.744C643.466 201.873 643.189 201.031 642.912 200.476C642.634 199.921 642.197 199.505 641.6 199.228C641.024 198.929 640.17 198.78 639.04 198.78H638.528V213.948C638.528 214.652 638.581 215.175 638.688 215.516C638.794 215.857 639.018 216.103 639.36 216.252C639.701 216.38 640.234 216.455 640.96 216.476V217.596L639.936 217.532C638.762 217.468 637.877 217.436 637.28 217.436C636.725 217.436 635.872 217.468 634.72 217.532L633.632 217.596V216.476C634.357 216.455 634.88 216.38 635.2 216.252C635.541 216.103 635.765 215.857 635.872 215.516C636 215.175 636.064 214.652 636.064 213.948V198.78H635.52C634.389 198.78 633.525 198.929 632.928 199.228C632.33 199.505 631.893 199.921 631.616 200.476C631.338 201.031 631.061 201.873 630.784 203.004H629.696L630.08 197.372C631.893 197.457 633.696 197.5 635.488 197.5H639.104C640.853 197.5 642.656 197.457 644.512 197.372L644.864 203.004ZM655.413 198.556C654.752 198.577 654.261 198.663 653.941 198.812C653.642 198.94 653.44 199.175 653.333 199.516C653.248 199.836 653.205 200.359 653.205 201.084V213.948C653.205 214.652 653.248 215.175 653.333 215.516C653.44 215.857 653.642 216.103 653.941 216.252C654.261 216.38 654.752 216.455 655.413 216.476V217.596L654.453 217.532C653.365 217.468 652.544 217.436 651.989 217.436C651.456 217.436 650.645 217.468 649.557 217.532L648.533 217.596V216.476C649.173 216.455 649.642 216.369 649.941 216.22C650.261 216.071 650.474 215.836 650.581 215.516C650.688 215.175 650.741 214.652 650.741 213.948V201.084C650.741 200.38 650.688 199.857 650.581 199.516C650.474 199.175 650.261 198.94 649.941 198.812C649.642 198.663 649.173 198.577 648.533 198.556V197.436C649.429 197.479 649.984 197.5 650.197 197.5C651.178 197.543 651.776 197.564 651.989 197.564C652.224 197.564 652.832 197.543 653.813 197.5C654.026 197.5 654.56 197.479 655.413 197.436V198.556ZM676.942 198.556C676.132 198.577 675.556 198.823 675.214 199.292C674.894 199.761 674.734 200.519 674.734 201.564V217.5H673.422L663.598 202.492V213.468C663.598 214.513 663.758 215.271 664.078 215.74C664.398 216.209 664.974 216.455 665.806 216.476V217.596L664.366 217.5C663.428 217.457 662.905 217.436 662.798 217.436C662.734 217.436 662.233 217.457 661.294 217.5L659.79 217.596V216.476C660.601 216.455 661.166 216.209 661.486 215.74C661.828 215.249 661.998 214.492 661.998 213.468V200.732C661.998 200.071 661.806 199.559 661.422 199.196C661.038 198.812 660.548 198.62 659.95 198.62V197.5C660.334 197.521 660.9 197.532 661.646 197.532C662.393 197.532 662.958 197.521 663.342 197.5L673.166 212.54V201.564C673.166 200.519 672.996 199.761 672.654 199.292C672.334 198.823 671.769 198.577 670.958 198.556V197.436L672.686 197.532L673.934 197.564L675.214 197.532L676.942 197.436V198.556ZM688.241 198.556C687.579 198.577 687.089 198.663 686.769 198.812C686.47 198.94 686.267 199.175 686.161 199.516C686.075 199.836 686.033 200.359 686.033 201.084V213.948C686.033 214.652 686.075 215.175 686.161 215.516C686.267 215.857 686.47 216.103 686.769 216.252C687.089 216.38 687.579 216.455 688.241 216.476V217.596L687.281 217.532C686.193 217.468 685.371 217.436 684.817 217.436C684.283 217.436 683.473 217.468 682.385 217.532L681.361 217.596V216.476C682.001 216.455 682.47 216.369 682.769 216.22C683.089 216.071 683.302 215.836 683.409 215.516C683.515 215.175 683.569 214.652 683.569 213.948V201.084C683.569 200.38 683.515 199.857 683.409 199.516C683.302 199.175 683.089 198.94 682.769 198.812C682.47 198.663 682.001 198.577 681.361 198.556V197.436C682.257 197.479 682.811 197.5 683.025 197.5C684.006 197.543 684.603 197.564 684.817 197.564C685.051 197.564 685.659 197.543 686.641 197.5C686.854 197.5 687.387 197.479 688.241 197.436V198.556ZM709.77 198.556C708.959 198.577 708.383 198.823 708.042 199.292C707.722 199.761 707.562 200.519 707.562 201.564V217.5H706.25L696.426 202.492V213.468C696.426 214.513 696.586 215.271 696.906 215.74C697.226 216.209 697.802 216.455 698.634 216.476V217.596L697.194 217.5C696.255 217.457 695.733 217.436 695.626 217.436C695.562 217.436 695.061 217.457 694.122 217.5L692.618 217.596V216.476C693.429 216.455 693.994 216.209 694.314 215.74C694.655 215.249 694.826 214.492 694.826 213.468V200.732C694.826 200.071 694.634 199.559 694.25 199.196C693.866 198.812 693.375 198.62 692.778 198.62V197.5C693.162 197.521 693.727 197.532 694.474 197.532C695.221 197.532 695.786 197.521 696.17 197.5L705.994 212.54V201.564C705.994 200.519 705.823 199.761 705.482 199.292C705.162 198.823 704.597 198.577 703.786 198.556V197.436L705.514 197.532L706.762 197.564L708.042 197.532L709.77 197.436V198.556ZM725.428 212.028C725.428 211.324 725.374 210.812 725.268 210.492C725.161 210.151 724.958 209.916 724.66 209.788C724.361 209.639 723.881 209.543 723.22 209.5V208.412C724.116 208.455 724.681 208.476 724.916 208.476C725.854 208.519 726.42 208.54 726.612 208.54C726.825 208.54 727.422 208.519 728.404 208.476C728.596 208.476 729.118 208.455 729.972 208.412V209.5C729.332 209.543 728.862 209.628 728.564 209.756C728.286 209.884 728.105 210.119 728.02 210.46C727.934 210.78 727.892 211.303 727.892 212.028V216.732C727.017 217.116 726.014 217.415 724.884 217.628C723.753 217.863 722.686 217.98 721.684 217.98C718.932 217.98 716.873 217.18 715.508 215.58C714.164 213.959 713.492 211.612 713.492 208.54C713.492 204.913 714.313 202.087 715.956 200.06C717.598 198.033 719.924 197.02 722.932 197.02C723.657 197.02 724.489 197.084 725.428 197.212C726.366 197.34 727.198 197.5 727.924 197.692C727.796 199.1 727.732 200.86 727.732 202.972H726.484C726.462 201.607 726.046 200.508 725.236 199.676C724.446 198.844 723.39 198.428 722.068 198.428C719.977 198.428 718.462 199.239 717.524 200.86C716.606 202.46 716.148 204.743 716.148 207.708C716.148 210.567 716.638 212.753 717.62 214.268C718.622 215.761 720.062 216.508 721.94 216.508C723.326 216.508 724.489 216.156 725.428 215.452V212.028ZM755.126 215.164C755.254 215.569 755.467 215.889 755.766 216.124C756.086 216.337 756.555 216.455 757.174 216.476V217.596C756.449 217.553 756.001 217.532 755.83 217.532C754.87 217.468 754.177 217.436 753.75 217.436C753.302 217.436 752.63 217.468 751.734 217.532C751.563 217.532 751.158 217.553 750.518 217.596V216.476C751.265 216.433 751.787 216.359 752.086 216.252C752.385 216.145 752.534 215.9 752.534 215.516C752.534 215.324 752.481 215.047 752.374 214.684L751.382 211.548H744.694L743.734 214.716C743.649 214.993 743.606 215.249 743.606 215.484C743.606 215.847 743.755 216.092 744.054 216.22C744.374 216.348 744.897 216.433 745.622 216.476V217.596L744.182 217.5C743.329 217.457 742.87 217.436 742.806 217.436C742.721 217.436 742.251 217.457 741.398 217.5L739.798 217.596V216.476C740.374 216.455 740.833 216.327 741.174 216.092C741.537 215.836 741.782 215.516 741.91 215.132L747.382 197.404H749.398L755.126 215.164ZM750.966 210.236L747.99 200.892H747.862L745.078 210.236H750.966ZM773.616 215.196C774.043 216.028 774.768 216.455 775.792 216.476V217.596C774.192 217.489 773.062 217.436 772.4 217.436C771.718 217.436 770.63 217.489 769.136 217.596V216.476C769.734 216.455 770.171 216.401 770.448 216.316C770.726 216.209 770.864 216.028 770.864 215.772C770.864 215.537 770.736 215.196 770.48 214.748L767.024 209.02L763.44 214.524C763.163 214.951 763.024 215.313 763.024 215.612C763.024 215.868 763.152 216.071 763.408 216.22C763.664 216.348 764.048 216.433 764.56 216.476V217.596C763.216 217.489 762.288 217.436 761.776 217.436C761.243 217.436 760.336 217.489 759.056 217.596V216.476C759.547 216.476 759.995 216.337 760.4 216.06C760.806 215.761 761.136 215.431 761.392 215.068L766.064 207.836L760.976 199.324C760.806 199.068 760.624 198.887 760.432 198.78C760.24 198.652 759.867 198.577 759.312 198.556V197.436L760.336 197.5C761.574 197.543 762.363 197.564 762.704 197.564C763.387 197.564 764.176 197.532 765.072 197.468L765.968 197.436V198.556C765.328 198.577 764.848 198.641 764.528 198.748C764.208 198.855 764.048 199.047 764.048 199.324C764.048 199.58 764.166 199.889 764.4 200.252L767.696 205.82L771.248 200.444C771.526 200.081 771.664 199.761 771.664 199.484C771.664 198.908 771.056 198.599 769.84 198.556V197.436C771.206 197.521 772.08 197.564 772.464 197.564C773.062 197.564 773.776 197.532 774.608 197.468L775.312 197.436V198.556C774.886 198.556 774.534 198.641 774.256 198.812C774 198.983 773.766 199.228 773.552 199.548L768.656 206.972L773.616 215.196ZM788.791 206.684C790.135 206.876 791.159 207.431 791.863 208.348C792.567 209.265 792.919 210.321 792.919 211.516C792.919 213.543 792.301 215.079 791.063 216.124C789.847 217.148 787.949 217.66 785.367 217.66C785.047 217.66 784.375 217.639 783.351 217.596C781.175 217.532 779.725 217.5 778.999 217.5V216.412C779.639 216.369 780.109 216.284 780.407 216.156C780.727 216.007 780.941 215.772 781.047 215.452C781.154 215.111 781.207 214.588 781.207 213.884V201.148C781.207 200.444 781.154 199.932 781.047 199.612C780.941 199.271 780.727 199.025 780.407 198.876C780.109 198.727 779.639 198.641 778.999 198.62V197.5C780.407 197.5 781.73 197.479 782.967 197.436C783.949 197.393 784.749 197.372 785.367 197.372C787.479 197.372 789.101 197.799 790.231 198.652C791.362 199.505 791.927 200.657 791.927 202.108C791.927 203.089 791.661 203.996 791.127 204.828C790.594 205.66 789.815 206.279 788.791 206.684ZM783.671 198.876V206.332H787.543C788.119 205.884 788.567 205.287 788.887 204.54C789.229 203.793 789.399 203.047 789.399 202.3C789.399 201.319 789.122 200.508 788.567 199.868C788.013 199.207 787.202 198.876 786.135 198.876H783.671ZM785.815 216.188C787.309 216.188 788.418 215.793 789.143 215.004C789.89 214.193 790.263 213.137 790.263 211.836C790.263 210.428 789.922 209.404 789.239 208.764C788.557 208.124 787.49 207.804 786.039 207.804H783.671V216.124L785.815 216.188ZM804.692 197.02C807.081 197.02 808.884 197.809 810.1 199.388C811.316 200.967 811.924 203.271 811.924 206.3C811.924 208.817 811.551 210.951 810.804 212.7C810.079 214.449 809.087 215.751 807.828 216.604C806.569 217.457 805.172 217.884 803.636 217.884C801.247 217.884 799.444 217.095 798.228 215.516C797.012 213.916 796.404 211.601 796.404 208.572C796.404 206.033 796.767 203.9 797.492 202.172C798.239 200.423 799.231 199.132 800.468 198.3C801.727 197.447 803.135 197.02 804.692 197.02ZM803.764 198.428C802.1 198.428 800.895 199.335 800.148 201.148C799.423 202.94 799.06 205.276 799.06 208.156C799.06 210.716 799.497 212.753 800.372 214.268C801.247 215.761 802.655 216.508 804.596 216.508C806.239 216.508 807.423 215.601 808.148 213.788C808.895 211.953 809.268 209.596 809.268 206.716C809.268 201.191 807.433 198.428 803.764 198.428ZM828.123 214.652C828.422 215.185 828.774 215.623 829.179 215.964C829.606 216.284 830.224 216.455 831.035 216.476V217.596C830.075 217.532 828.998 217.5 827.803 217.5H826.747L822.043 208.284H821.403L820.155 208.252V213.948C820.155 214.652 820.208 215.175 820.315 215.516C820.422 215.857 820.646 216.103 820.987 216.252C821.328 216.38 821.872 216.455 822.619 216.476V217.596C820.742 217.489 819.526 217.436 818.971 217.436C818.416 217.436 817.254 217.489 815.483 217.596V216.476C816.123 216.455 816.592 216.369 816.891 216.22C817.211 216.071 817.424 215.836 817.531 215.516C817.638 215.175 817.691 214.652 817.691 213.948V201.052C817.691 200.348 817.638 199.825 817.531 199.484C817.424 199.143 817.211 198.908 816.891 198.78C816.592 198.631 816.123 198.545 815.483 198.524V197.564C816.038 197.564 817.243 197.532 819.099 197.468C819.867 197.404 820.688 197.372 821.563 197.372C823.931 197.372 825.723 197.852 826.939 198.812C828.176 199.751 828.795 201.009 828.795 202.588C828.795 203.953 828.443 205.095 827.739 206.012C827.035 206.908 825.979 207.537 824.571 207.9L828.123 214.652ZM820.155 206.812C820.731 206.897 821.371 206.94 822.075 206.94C822.907 206.94 823.632 206.748 824.251 206.364C824.891 205.98 825.382 205.479 825.723 204.86C826.064 204.22 826.235 203.548 826.235 202.844C826.235 201.649 825.872 200.7 825.147 199.996C824.443 199.271 823.312 198.908 821.755 198.908H820.155V206.812ZM841.895 197.02C844.284 197.02 846.087 197.809 847.303 199.388C848.519 200.967 849.127 203.271 849.127 206.3C849.127 208.817 848.753 210.951 848.007 212.7C847.281 214.449 846.289 215.751 845.031 216.604C843.772 217.457 842.375 217.884 840.839 217.884C838.449 217.884 836.647 217.095 835.431 215.516C834.215 213.916 833.607 211.601 833.607 208.572C833.607 206.033 833.969 203.9 834.695 202.172C835.441 200.423 836.433 199.132 837.671 198.3C838.929 197.447 840.337 197.02 841.895 197.02ZM840.967 198.428C839.303 198.428 838.097 199.335 837.351 201.148C836.625 202.94 836.263 205.276 836.263 208.156C836.263 210.716 836.7 212.753 837.575 214.268C838.449 215.761 839.857 216.508 841.799 216.508C843.441 216.508 844.625 215.601 845.351 213.788C846.097 211.953 846.471 209.596 846.471 206.716C846.471 201.191 844.636 198.428 840.967 198.428ZM867.586 203.004H866.466C866.189 201.873 865.912 201.031 865.634 200.476C865.357 199.921 864.92 199.505 864.322 199.228C863.746 198.929 862.893 198.78 861.762 198.78H861.25V213.948C861.25 214.652 861.304 215.175 861.41 215.516C861.517 215.857 861.741 216.103 862.082 216.252C862.424 216.38 862.957 216.455 863.682 216.476V217.596L862.658 217.532C861.485 217.468 860.6 217.436 860.002 217.436C859.448 217.436 858.594 217.468 857.442 217.532L856.354 217.596V216.476C857.08 216.455 857.602 216.38 857.922 216.252C858.264 216.103 858.488 215.857 858.594 215.516C858.722 215.175 858.786 214.652 858.786 213.948V198.78H858.242C857.112 198.78 856.248 198.929 855.65 199.228C855.053 199.505 854.616 199.921 854.338 200.476C854.061 201.031 853.784 201.873 853.506 203.004H852.418L852.802 197.372C854.616 197.457 856.418 197.5 858.21 197.5H861.826C863.576 197.5 865.378 197.457 867.234 197.372L867.586 203.004ZM884.653 209.052C884.098 209.052 883.671 209.041 883.373 209.02V213.948C883.373 214.652 883.426 215.175 883.533 215.516C883.639 215.857 883.863 216.103 884.205 216.252C884.546 216.38 885.09 216.455 885.837 216.476V217.596C884.087 217.489 882.903 217.436 882.285 217.436C881.666 217.436 880.471 217.489 878.701 217.596V216.476C879.341 216.455 879.81 216.369 880.109 216.22C880.429 216.071 880.642 215.836 880.749 215.516C880.855 215.175 880.909 214.652 880.909 213.948V201.052C880.909 200.348 880.855 199.825 880.749 199.484C880.642 199.143 880.429 198.908 880.109 198.78C879.81 198.631 879.341 198.545 878.701 198.524V197.564C879.298 197.564 880.493 197.532 882.285 197.468C883.053 197.404 883.895 197.372 884.813 197.372C887.266 197.372 889.133 197.873 890.413 198.876C891.714 199.879 892.365 201.223 892.365 202.908C892.365 204.849 891.703 206.364 890.381 207.452C889.079 208.519 887.17 209.052 884.653 209.052ZM883.373 198.908V207.644C884.013 207.708 884.653 207.74 885.293 207.74C886.167 207.74 886.935 207.537 887.597 207.132C888.258 206.705 888.77 206.151 889.133 205.468C889.495 204.764 889.677 204.017 889.677 203.228C889.677 201.905 889.293 200.86 888.525 200.092C887.778 199.303 886.605 198.908 885.005 198.908H883.373ZM903.862 197.02C906.251 197.02 908.054 197.809 909.27 199.388C910.486 200.967 911.094 203.271 911.094 206.3C911.094 208.817 910.721 210.951 909.974 212.7C909.249 214.449 908.257 215.751 906.998 216.604C905.739 217.457 904.342 217.884 902.806 217.884C900.417 217.884 898.614 217.095 897.398 215.516C896.182 213.916 895.574 211.601 895.574 208.572C895.574 206.033 895.937 203.9 896.662 202.172C897.409 200.423 898.401 199.132 899.638 198.3C900.897 197.447 902.305 197.02 903.862 197.02ZM902.934 198.428C901.27 198.428 900.065 199.335 899.318 201.148C898.593 202.94 898.23 205.276 898.23 208.156C898.23 210.716 898.667 212.753 899.542 214.268C900.417 215.761 901.825 216.508 903.766 216.508C905.409 216.508 906.593 215.601 907.318 213.788C908.065 211.953 908.438 209.596 908.438 206.716C908.438 201.191 906.603 198.428 902.934 198.428ZM927.293 214.652C927.592 215.185 927.944 215.623 928.349 215.964C928.776 216.284 929.394 216.455 930.205 216.476V217.596C929.245 217.532 928.168 217.5 926.973 217.5H925.917L921.213 208.284H920.573L919.325 208.252V213.948C919.325 214.652 919.378 215.175 919.485 215.516C919.592 215.857 919.816 216.103 920.157 216.252C920.498 216.38 921.042 216.455 921.789 216.476V217.596C919.912 217.489 918.696 217.436 918.141 217.436C917.586 217.436 916.424 217.489 914.653 217.596V216.476C915.293 216.455 915.762 216.369 916.061 216.22C916.381 216.071 916.594 215.836 916.701 215.516C916.808 215.175 916.861 214.652 916.861 213.948V201.052C916.861 200.348 916.808 199.825 916.701 199.484C916.594 199.143 916.381 198.908 916.061 198.78C915.762 198.631 915.293 198.545 914.653 198.524V197.564C915.208 197.564 916.413 197.532 918.269 197.468C919.037 197.404 919.858 197.372 920.733 197.372C923.101 197.372 924.893 197.852 926.109 198.812C927.346 199.751 927.965 201.009 927.965 202.588C927.965 203.953 927.613 205.095 926.909 206.012C926.205 206.908 925.149 207.537 923.741 207.9L927.293 214.652ZM919.325 206.812C919.901 206.897 920.541 206.94 921.245 206.94C922.077 206.94 922.802 206.748 923.421 206.364C924.061 205.98 924.552 205.479 924.893 204.86C925.234 204.22 925.405 203.548 925.405 202.844C925.405 201.649 925.042 200.7 924.317 199.996C923.613 199.271 922.482 198.908 920.925 198.908H919.325V206.812ZM947.311 203.004H946.191C945.914 201.873 945.637 201.031 945.359 200.476C945.082 199.921 944.645 199.505 944.047 199.228C943.471 198.929 942.618 198.78 941.487 198.78H940.975V213.948C940.975 214.652 941.029 215.175 941.135 215.516C941.242 215.857 941.466 216.103 941.807 216.252C942.149 216.38 942.682 216.455 943.407 216.476V217.596L942.383 217.532C941.21 217.468 940.325 217.436 939.727 217.436C939.173 217.436 938.319 217.468 937.167 217.532L936.079 217.596V216.476C936.805 216.455 937.327 216.38 937.647 216.252C937.989 216.103 938.213 215.857 938.319 215.516C938.447 215.175 938.511 214.652 938.511 213.948V198.78H937.967C936.837 198.78 935.973 198.929 935.375 199.228C934.778 199.505 934.341 199.921 934.063 200.476C933.786 201.031 933.509 201.873 933.231 203.004H932.143L932.527 197.372C934.341 197.457 936.143 197.5 937.935 197.5H941.551C943.301 197.5 945.103 197.457 946.959 197.372L947.311 203.004ZM963.872 215.164C964 215.569 964.214 215.889 964.512 216.124C964.832 216.337 965.302 216.455 965.92 216.476V217.596C965.195 217.553 964.747 217.532 964.576 217.532C963.616 217.468 962.923 217.436 962.496 217.436C962.048 217.436 961.376 217.468 960.48 217.532C960.31 217.532 959.904 217.553 959.264 217.596V216.476C960.011 216.433 960.534 216.359 960.832 216.252C961.131 216.145 961.28 215.9 961.28 215.516C961.28 215.324 961.227 215.047 961.12 214.684L960.128 211.548H953.44L952.48 214.716C952.395 214.993 952.352 215.249 952.352 215.484C952.352 215.847 952.502 216.092 952.8 216.22C953.12 216.348 953.643 216.433 954.368 216.476V217.596L952.928 217.5C952.075 217.457 951.616 217.436 951.552 217.436C951.467 217.436 950.998 217.457 950.144 217.5L948.544 217.596V216.476C949.12 216.455 949.579 216.327 949.92 216.092C950.283 215.836 950.528 215.516 950.656 215.132L956.128 197.404H958.144L963.872 215.164ZM959.712 210.236L956.736 200.892H956.608L953.824 210.236H959.712ZM976.187 198.556C975.44 198.577 974.896 198.663 974.555 198.812C974.213 198.94 973.989 199.175 973.883 199.516C973.776 199.836 973.723 200.359 973.723 201.084V216.124H975.931C977.701 216.124 979.003 215.793 979.835 215.132C980.667 214.449 981.243 213.308 981.563 211.708H982.683L981.499 217.66C979.941 217.553 978.043 217.5 975.803 217.5H972.507C971.355 217.5 970.203 217.532 969.051 217.596V216.476C969.691 216.455 970.16 216.369 970.459 216.22C970.779 216.071 970.992 215.836 971.099 215.516C971.205 215.175 971.259 214.652 971.259 213.948V201.084C971.259 200.38 971.205 199.857 971.099 199.516C970.992 199.175 970.779 198.94 970.459 198.812C970.16 198.663 969.691 198.577 969.051 198.556V197.436C970.032 197.479 970.629 197.5 970.843 197.5C971.824 197.543 972.411 197.564 972.603 197.564C972.837 197.564 973.445 197.543 974.427 197.5C974.661 197.5 975.248 197.479 976.187 197.436V198.556ZM992.876 198.556C992.214 198.577 991.724 198.663 991.404 198.812C991.105 198.94 990.902 199.175 990.796 199.516C990.71 199.836 990.668 200.359 990.668 201.084V213.948C990.668 214.652 990.71 215.175 990.796 215.516C990.902 215.857 991.105 216.103 991.404 216.252C991.724 216.38 992.214 216.455 992.876 216.476V217.596L991.916 217.532C990.828 217.468 990.006 217.436 989.452 217.436C988.918 217.436 988.108 217.468 987.02 217.532L985.996 217.596V216.476C986.636 216.455 987.105 216.369 987.404 216.22C987.724 216.071 987.937 215.836 988.044 215.516C988.15 215.175 988.204 214.652 988.204 213.948V201.084C988.204 200.38 988.15 199.857 988.044 199.516C987.937 199.175 987.724 198.94 987.404 198.812C987.105 198.663 986.636 198.577 985.996 198.556V197.436C986.892 197.479 987.446 197.5 987.66 197.5C988.641 197.543 989.238 197.564 989.452 197.564C989.686 197.564 990.294 197.543 991.276 197.5C991.489 197.5 992.022 197.479 992.876 197.436V198.556Z" fill="#5E8EEF"/>
<path d="M107.999 267.237L107.502 90.5138L115.274 94.4461L115.5 94.5604L115.726 94.4461L123.5 90.5127V266.741L115.496 272.391L107.999 267.237Z" fill="#5E8EEF" stroke="#5E8EEF"/>
<path d="M141.218 254.587L133.027 260.066L132.501 86.6242L140.737 81.4393L140.738 81.4389L149.5 75.907V248.941L141.222 254.584L141.218 254.587Z" fill="#A6B8E9" stroke="#A6B8E9"/>
<path d="M89.7816 254.587L97.9734 260.066L98.4992 86.6242L90.263 81.4393L90.2625 81.4389L81.5 75.907V248.941L89.778 254.584L89.7816 254.587Z" fill="#A6B8E9" stroke="#A6B8E9"/>
<path d="M170.22 235.162L161.5 241.058V31.4343L169.723 36.916L169.723 36.916L169.727 36.9188L178.5 42.6423V229.81L170.229 235.156L170.22 235.162Z" fill="#A6B8E9" stroke="#A6B8E9"/>
<path d="M60.7801 235.162L69.5 241.058V31.4343L61.2774 36.916L61.2774 36.916L61.2732 36.9188L52.5 42.6423V229.81L60.7715 235.156L60.7801 235.162Z" fill="#A6B8E9" stroke="#A6B8E9"/>
<path d="M195.726 53.9185L204.5 59.7676V210.994L195.723 217.084L195.715 217.089L187.5 222.566V48.6409L195.726 53.9185Z" fill="#A6B8E9" stroke="#A6B8E9"/>
<path d="M35.2737 53.9185L26.5 59.7676V210.994L35.2774 217.084L35.285 217.089L43.5 222.566V48.6409L35.2737 53.9185Z" fill="#A6B8E9" stroke="#A6B8E9"/>
<path d="M223.223 197.584L223.216 197.588L223.209 197.593L213.5 204.528V65.9191L221.225 70.9178L221.228 70.9198L230.5 77.0143V192.732L223.223 197.584Z" fill="#5E8EEF" stroke="#5E8EEF"/>
<path d="M7.77735 197.584L7.78406 197.588L7.79062 197.593L17.5 204.528V65.9191L9.77464 70.9178L9.77163 70.9198L0.5 77.0143V192.732L7.77735 197.584Z" fill="#5E8EEF" stroke="#5E8EEF"/>
<mask id="path-11-inside-1_18_326" fill="white">
<path d="M142 55.5C142 70.4117 129.912 82.5 115 82.5C100.088 82.5 88 70.4117 88 55.5C88 40.5883 100.088 28.5 115 28.5C129.912 28.5 142 40.5883 142 55.5ZM103.368 55.5C103.368 61.924 108.576 67.1317 115 67.1317C121.424 67.1317 126.632 61.924 126.632 55.5C126.632 49.076 121.424 43.8683 115 43.8683C108.576 43.8683 103.368 49.076 103.368 55.5Z"/>
</mask>
<path d="M142 55.5C142 70.4117 129.912 82.5 115 82.5C100.088 82.5 88 70.4117 88 55.5C88 40.5883 100.088 28.5 115 28.5C129.912 28.5 142 40.5883 142 55.5ZM103.368 55.5C103.368 61.924 108.576 67.1317 115 67.1317C121.424 67.1317 126.632 61.924 126.632 55.5C126.632 49.076 121.424 43.8683 115 43.8683C108.576 43.8683 103.368 49.076 103.368 55.5Z" fill="#5E8EEF" stroke="#5E8EEF" stroke-width="2" mask="url(#path-11-inside-1_18_326)"/>
<path d="M135.272 25.3524C137.891 26.618 140.286 28.2142 142.404 30.022C140.181 28.2358 137.667 26.6688 134.97 25.3652C129.06 22.5087 122.224 21.0235 115.27 21.0784C108.315 21.1333 101.52 22.726 95.6857 25.6757C89.9424 28.5793 86.0984 32.1824 83.2365 37H82.8833C85.7474 32.3726 89.7799 28.4954 95.3749 25.6667C101.285 22.6787 108.187 21.0573 115.263 21.0015C122.34 20.9457 129.284 22.4577 135.272 25.3524Z" fill="#D9D9D9" stroke="#7F91B5"/>
<path d="M115.55 20.5025L115.499 20.4974L115.448 20.5027L105.948 21.5027L105.894 21.5084L105.842 21.5257L96.8419 24.5257L96.7854 24.5445L96.735 24.576L88.735 29.576L88.674 29.6141L88.6263 29.6678L84.6263 34.1678L84.6032 34.1938L84.584 34.2226L82.7324 37H81.5V24.2613L115.5 0.609085L149.5 24.2613V37H149.268L148.416 35.7226L148.389 35.6815L148.354 35.6464L146.354 33.6464L143.354 30.6464L143.328 30.6213L143.3 30.6L139.3 27.6L139.283 27.5873L139.265 27.576L135.265 25.076L135.221 25.0487L135.173 25.0308L125.673 21.5308L125.613 21.5088L125.55 21.5025L115.55 20.5025Z" fill="#5E8EEF" stroke="#5E8EEF"/>
<path d="M342.543 98.1777C340.753 98.6253 339.451 99.0729 338.637 99.5205C337.864 99.9681 337.233 100.538 336.745 101.229C336.298 101.881 335.952 102.877 335.708 104.22C335.504 105.563 335.402 107.638 335.402 110.446V163.241C335.402 165.967 335.484 167.961 335.646 169.223C335.85 170.484 336.155 171.481 336.562 172.213C337.01 172.946 337.64 173.556 338.454 174.044C339.309 174.533 340.672 175.021 342.543 175.509V178.5H317.092V175.509C319.411 174.94 321.018 174.289 321.914 173.556C322.809 172.824 323.419 171.745 323.745 170.321C324.07 168.897 324.233 166.537 324.233 163.241V139.865C324.233 133.721 324.314 127.515 324.477 121.249C324.681 114.942 324.904 110.629 325.148 108.31H324.111L299.941 168.795H292.922L270.461 107.333H269.423C269.627 109.815 269.81 114.311 269.973 120.822C270.176 127.332 270.278 134.026 270.278 140.902V163.241C270.278 165.967 270.359 167.961 270.522 169.223C270.725 170.484 271.031 171.481 271.438 172.213C271.885 172.946 272.516 173.556 273.33 174.044C274.184 174.533 275.547 175.021 277.419 175.509V178.5H255.141V175.509C257.664 174.858 259.353 174.146 260.207 173.373C261.062 172.559 261.611 171.42 261.855 169.955C262.14 168.49 262.282 166.252 262.282 163.241V110.446C262.282 107.638 262.181 105.604 261.977 104.342C261.774 103.04 261.428 102.043 260.939 101.352C260.492 100.619 259.882 100.049 259.108 99.6426C258.335 99.195 257.013 98.7067 255.141 98.1777V95.187H276.931L298.354 154.574L321.914 95.187H342.543V98.1777ZM380.598 143.527L363.752 112.216C361.717 108.432 360.171 105.726 359.113 104.098C358.055 102.471 356.997 101.189 355.939 100.253C354.882 99.3171 353.661 98.6253 352.277 98.1777V95.187H378.278V98.1777C374.453 98.6253 372.541 100.273 372.541 103.122C372.541 104.302 372.806 105.624 373.334 107.089C373.904 108.554 374.901 110.629 376.325 113.314L388.532 136.569L400.556 115.329C402.184 112.44 403.323 110.08 403.974 108.249C404.666 106.377 405.012 104.668 405.012 103.122C405.012 101.657 404.564 100.517 403.669 99.7036C402.814 98.8491 401.533 98.3405 399.824 98.1777V95.187H422.956V98.1777C421.288 98.7881 419.823 99.6426 418.562 100.741C417.3 101.799 416.018 103.244 414.716 105.075C413.414 106.906 411.502 109.998 408.979 114.352L392.011 143.283V163.058C392.011 165.377 392.133 167.249 392.377 168.673C392.622 170.097 393.028 171.237 393.598 172.091C394.168 172.946 394.921 173.617 395.856 174.105C396.792 174.594 398.257 175.062 400.251 175.509V178.5H372.358V175.509C374.311 175.102 375.756 174.675 376.691 174.228C377.627 173.739 378.38 173.068 378.95 172.213C379.519 171.318 379.926 170.159 380.17 168.734C380.455 167.31 380.598 165.418 380.598 163.058V143.527ZM429.882 164.34V178.5H417.553V164.34H429.882ZM486.369 178.5V175.509C488.404 175.102 489.909 174.655 490.886 174.167C491.903 173.678 492.656 173.007 493.144 172.152C493.632 171.257 493.876 170.077 493.876 168.612C493.876 167.229 493.714 165.744 493.388 164.157C493.063 162.529 492.595 160.718 491.984 158.725L489.726 150.851H461.284L459.208 156.833C458.151 159.844 457.459 162.122 457.133 163.668C456.808 165.215 456.645 166.618 456.645 167.88C456.645 170.321 457.255 172.112 458.476 173.251C459.737 174.39 461.65 175.143 464.213 175.509V178.5H438.151V175.509C440.43 175.143 442.403 173.821 444.072 171.542C445.781 169.263 447.429 166.008 449.016 161.776L474.467 94.2104H484.111L504.863 162.265C505.839 165.438 506.694 167.86 507.426 169.528C508.199 171.196 509.115 172.498 510.173 173.434C511.231 174.37 512.675 175.062 514.506 175.509V178.5H486.369ZM462.932 145.541H488.444L476.848 106.173L462.932 145.541ZM542.917 142.306V163.058C542.917 165.988 543.019 168.124 543.222 169.467C543.466 170.769 543.812 171.766 544.26 172.458C544.707 173.109 545.318 173.658 546.091 174.105C546.864 174.512 548.186 174.98 550.058 175.509V178.5H524.301V175.509C526.824 174.858 528.513 174.146 529.367 173.373C530.222 172.559 530.771 171.42 531.015 169.955C531.3 168.49 531.442 166.252 531.442 163.241V110.446C531.442 107.638 531.341 105.604 531.137 104.342C530.934 103.04 530.588 102.043 530.1 101.352C529.652 100.619 529.042 100.049 528.269 99.6426C527.495 99.195 526.173 98.7067 524.301 98.1777V95.187H554.514C564.035 95.187 571.156 96.9163 575.876 100.375C580.596 103.834 582.956 109.205 582.956 116.488C582.956 122.063 581.41 126.803 578.317 130.709C575.266 134.616 570.668 137.667 564.523 139.865V140.353C567.006 141.37 569.121 142.835 570.871 144.748C572.661 146.619 574.635 149.549 576.792 153.537L582.285 163.546C583.872 166.476 585.235 168.714 586.374 170.26C587.513 171.806 588.673 172.986 589.853 173.8C591.033 174.614 592.6 175.184 594.553 175.509V178.5H577.646C576.1 176.343 574.635 174.024 573.251 171.542C571.868 169.06 570.505 166.537 569.162 163.974L563.791 153.781C562.163 150.688 560.821 148.41 559.763 146.945C558.745 145.48 557.789 144.463 556.894 143.893C556.04 143.283 555.104 142.876 554.086 142.672C553.11 142.428 551.625 142.306 549.631 142.306H542.917ZM542.917 100.802V137.057H549.814C553.354 137.057 556.223 136.813 558.42 136.325C560.617 135.796 562.652 134.819 564.523 133.395C566.395 131.971 567.88 129.997 568.979 127.475C570.118 124.911 570.688 121.778 570.688 118.075C570.688 114.21 570.017 110.995 568.674 108.432C567.372 105.868 565.378 103.915 562.692 102.572C560.007 101.229 556.385 100.558 551.828 100.558C548.166 100.558 545.196 100.639 542.917 100.802ZM659.035 178.195L654.274 179.477L649.819 174.716C647.174 176.343 644.407 177.544 641.518 178.317C638.629 179.09 635.313 179.477 631.569 179.477C621.275 179.477 613.523 175.957 608.315 168.917C603.107 161.837 600.502 151.339 600.502 137.423C600.502 128.756 601.927 121.147 604.775 114.596C607.623 108.045 611.713 103.02 617.043 99.5205C622.373 95.9805 628.64 94.2104 635.842 94.2104C639.626 94.2104 643.268 94.4342 646.767 94.8818C650.266 95.2887 654.152 96.0212 658.425 97.0791V113.864H652.382C651.284 110.202 649.982 107.353 648.476 105.319C646.971 103.244 645.16 101.779 643.044 100.924C640.969 100.029 638.324 99.5815 635.109 99.5815C630.674 99.5815 626.788 101.006 623.452 103.854C620.115 106.702 617.511 110.914 615.639 116.488C613.808 122.022 612.893 128.716 612.893 136.569C612.893 144.544 613.666 151.36 615.212 157.016C616.799 162.672 619.139 166.944 622.231 169.833C625.323 172.681 629.128 174.105 633.645 174.105C638.446 174.105 642.006 173.068 644.326 170.993C646.645 168.877 647.805 165.642 647.805 161.288V157.626C647.805 153.964 647.601 151.319 647.194 149.691C646.828 148.064 646.157 146.802 645.18 145.907C644.204 145.012 642.596 144.28 640.358 143.71V140.719H665.017V143.71C663.552 144.198 662.453 144.768 661.721 145.419C660.988 146.029 660.419 146.802 660.012 147.738C659.646 148.674 659.381 149.834 659.218 151.217C659.096 152.56 659.035 154.493 659.035 157.016V178.195ZM710.822 179.477C705.939 179.477 701.484 178.683 697.456 177.096C693.468 175.469 690.03 172.966 687.141 169.589C684.292 166.171 682.075 161.817 680.488 156.527C678.942 151.238 678.168 144.91 678.168 137.545C678.168 128.472 679.552 120.679 682.319 114.169C685.086 107.659 689.033 102.715 694.16 99.3374C699.327 95.9194 705.309 94.2104 712.104 94.2104C719.347 94.2104 725.43 95.8177 730.354 99.0322C735.318 102.206 739.041 106.906 741.523 113.131C744.046 119.316 745.307 126.864 745.307 135.775C745.307 145.297 743.883 153.333 741.035 159.884C738.186 166.435 734.158 171.339 728.95 174.594C723.782 177.849 717.74 179.477 710.822 179.477ZM690.742 135.836C690.742 148.328 692.552 157.829 696.174 164.34C699.836 170.85 705.166 174.105 712.165 174.105C716.6 174.105 720.364 172.702 723.457 169.894C726.549 167.046 728.868 162.895 730.415 157.443C731.961 151.99 732.734 145.622 732.734 138.339C732.734 129.468 731.818 122.124 729.987 116.305C728.197 110.446 725.735 106.194 722.602 103.549C719.469 100.904 715.827 99.5815 711.677 99.5815C708.015 99.5815 704.861 100.436 702.216 102.145C699.612 103.854 697.435 106.295 695.686 109.469C693.977 112.602 692.715 116.407 691.901 120.883C691.128 125.359 690.742 130.343 690.742 135.836ZM766.76 159.518C767.574 163.099 768.672 165.927 770.056 168.002C771.439 170.077 773.229 171.623 775.427 172.641C777.624 173.617 780.452 174.105 783.911 174.105C788.671 174.105 792.313 172.864 794.836 170.382C797.399 167.9 798.681 164.279 798.681 159.518C798.681 156.466 798.152 153.903 797.094 151.828C796.036 149.752 794.307 147.799 791.906 145.968C789.506 144.137 785.843 142.001 780.92 139.56C776.159 137.2 772.395 134.901 769.628 132.663C766.861 130.384 764.786 127.922 763.403 125.277C762.06 122.632 761.389 119.743 761.389 116.61C761.389 112.053 762.447 108.106 764.562 104.77C766.719 101.392 769.852 98.7881 773.962 96.957C778.112 95.126 782.853 94.2104 788.183 94.2104C791.276 94.2104 794.287 94.3732 797.216 94.6987C800.187 95.0243 803.889 95.7567 808.325 96.896V113.375H802.282C801.346 109.795 800.166 107.007 798.742 105.014C797.318 103.02 795.65 101.636 793.737 100.863C791.825 100.049 789.343 99.6426 786.291 99.6426C783.646 99.6426 781.266 100.131 779.15 101.107C777.075 102.084 775.427 103.569 774.206 105.563C772.985 107.516 772.375 109.856 772.375 112.582C772.375 115.471 772.884 117.912 773.901 119.906C774.959 121.9 776.586 123.751 778.784 125.46C780.981 127.169 784.236 129.082 788.549 131.198C793.758 133.802 797.786 136.223 800.634 138.461C803.523 140.699 805.761 143.262 807.348 146.151C808.976 149 809.79 152.336 809.79 156.161C809.79 160.434 809.118 164.055 807.775 167.025C806.433 169.955 804.561 172.356 802.16 174.228C799.8 176.059 796.952 177.401 793.615 178.256C790.319 179.07 786.698 179.477 782.751 179.477C776.363 179.477 768.998 178.398 760.656 176.242V159.518H766.76ZM836.064 164.34V178.5H823.735V164.34H836.064ZM912.631 149.691C912.631 154.127 912.224 157.951 911.411 161.166C910.638 164.218 909.478 166.924 907.932 169.284C906.507 171.4 904.737 173.21 902.622 174.716C900.506 176.181 897.942 177.34 894.931 178.195C891.92 179.049 888.38 179.477 884.311 179.477C879.388 179.477 875.156 178.927 871.616 177.829C868.116 176.73 865.207 174.94 862.888 172.458C860.609 169.935 858.961 166.985 857.944 163.607C856.927 160.189 856.418 155.856 856.418 150.607V110.446C856.418 107.272 856.316 105.136 856.113 104.037C855.909 102.898 855.604 102.003 855.197 101.352C854.831 100.701 854.282 100.151 853.549 99.7036C852.817 99.2153 851.454 98.7067 849.46 98.1777V95.187H875.095V98.1777C872.816 98.7474 871.229 99.3984 870.334 100.131C869.439 100.823 868.828 101.881 868.503 103.305C868.177 104.729 868.015 107.109 868.015 110.446V153.659C868.015 157.606 868.422 160.922 869.235 163.607C870.09 166.293 871.27 168.389 872.775 169.894C874.281 171.359 876.071 172.437 878.146 173.129C880.222 173.78 882.806 174.105 885.898 174.105C888.746 174.105 891.249 173.617 893.405 172.641C895.562 171.623 897.352 170.097 898.776 168.063C900.241 166.028 901.238 163.526 901.767 160.556C902.296 157.585 902.561 153.598 902.561 148.593V110.446C902.561 106.906 902.377 104.485 902.011 103.183C901.686 101.881 901.116 100.884 900.302 100.192C899.529 99.5002 897.902 98.8288 895.419 98.1777V95.187H919.772V98.1777C917.412 98.7881 915.785 99.4595 914.89 100.192C914.035 100.924 913.445 101.982 913.12 103.366C912.794 104.749 912.631 107.109 912.631 110.446V149.691ZM946.23 172.885H968.264C970.99 172.885 973.004 172.641 974.306 172.152C975.649 171.623 976.748 170.83 977.602 169.772C978.457 168.673 979.23 167.147 979.921 165.194C980.613 163.241 981.447 160.21 982.424 156.1H988.405V178.5H932.009V175.509L973.818 100.802H951.662C950.075 100.802 948.814 100.945 947.878 101.229C946.983 101.474 946.169 101.881 945.437 102.45C944.704 102.979 943.972 103.773 943.239 104.831C942.548 105.889 941.835 107.353 941.103 109.225C940.411 111.056 939.679 113.355 938.906 116.122H932.924V95.187H987.978V98.1167L946.23 172.885Z" fill="#A6B8E9"/>
</svg>
