<svg width="533" height="199" viewBox="0 0 533 199" fill="none" xmlns="http://www.w3.org/2000/svg">
<path opacity="0.93" fill-rule="evenodd" clip-rule="evenodd" d="M648.149 119.224C648.413 116.524 647.187 113.897 644.941 112.374C643.925 111.687 642.738 111.26 641.511 111.14L635.709 110.58C635.145 109.236 634.201 108.057 632.966 107.217C631.828 106.449 630.502 106.003 629.121 105.927L623.884 105.642C623.314 104.207 622.322 102.954 620.999 102.055L621.003 102.057C619.741 101.202 618.268 100.737 616.738 100.713L612.03 100.642C611.446 99.1325 610.412 97.8112 609.039 96.8806L609.042 96.8766C607.654 95.9383 606.034 95.4597 604.35 95.496L600.182 95.5878C599.584 94.0251 598.519 92.6704 597.089 91.7005C595.57 90.6702 593.8 90.1824 591.964 90.2857L588.314 90.4929C587.694 88.8911 586.6 87.5012 585.139 86.5101C583.515 85.4089 581.543 84.8969 579.581 85.0714L576.441 85.3523C575.796 83.7265 574.676 82.3135 573.199 81.314C571.447 80.1232 569.317 79.6077 567.202 79.8596L564.557 80.1778C563.885 78.5438 562.742 77.1212 561.257 76.1116C559.367 74.8302 557.083 74.3136 554.82 74.6518L552.673 74.9727C551.979 73.3361 550.83 71.9326 549.321 70.9075L549.325 70.91C547.299 69.534 544.853 69.0114 542.44 69.44L540.775 69.7348C540.054 68.1112 538.894 66.7179 537.39 65.6955C535.227 64.2289 532.623 63.7093 530.061 64.2282L528.87 64.4702C528.119 62.8689 526.952 61.4924 525.462 60.4793C523.193 58.9419 520.356 58.4058 517.682 59.0163L516.953 59.1824C516.179 57.6105 515.007 56.2563 513.536 55.2592C511.127 53.6248 508.125 53.0971 505.306 53.807L505.026 53.8775C504.227 52.3404 503.057 51.0142 501.609 50.0326L501.606 50.0367C499.108 48.3388 496.01 47.8038 493.087 48.5527C492.269 47.061 491.106 45.7713 489.685 44.8085C487.172 43.1034 484.095 42.5398 481.158 43.2288C480.329 41.7764 479.183 40.5354 477.767 39.5763C475.234 37.8615 472.174 37.269 469.219 37.9008C468.375 36.4914 467.237 35.2847 465.849 34.3443L465.855 34.3428C463.303 32.6127 460.25 31.9966 457.283 32.5732C456.429 31.2034 455.298 30.0272 453.935 29.1041L453.933 29.1081C451.408 27.3925 448.31 26.7458 445.343 27.2552C444.477 25.9234 443.354 24.7757 442.02 23.868L442.022 23.864C439.479 22.1431 436.387 21.4694 433.402 21.9304C432.53 20.6344 431.417 19.5161 430.106 18.6278C427.546 16.8891 424.463 16.1949 421.465 16.6111C420.587 15.3489 419.483 14.2562 418.195 13.3836L418.198 13.3796C415.618 11.6307 412.534 10.9133 409.52 11.2867C408.639 10.06 407.547 8.99522 406.284 8.13944C403.688 6.37753 400.608 5.63468 397.582 5.96475C396.697 4.77012 395.615 3.72871 394.374 2.88481L394.378 2.88728C390.57 0.307171 385.783 -0.135983 381.567 1.70012L8.33271 164.189C5.06347 165.612 2.53496 168.223 1.22336 171.545C-0.0921702 174.864 -0.0363436 178.492 1.38021 181.763L162.785 554.96C163.792 557.286 165.43 559.265 167.517 560.684C171.318 563.266 176.11 563.711 180.326 561.875L553.56 399.387C555.443 398.567 557.078 397.353 558.378 395.837C559.579 395.111 560.646 394.204 561.546 393.146C562.763 392.416 563.825 391.501 564.709 390.453C565.92 389.738 566.992 388.829 567.888 387.759C569.097 387.053 570.166 386.147 571.056 385.078C572.278 384.37 573.34 383.46 574.212 382.407C575.442 381.709 576.527 380.793 577.42 379.697C578.627 379.017 579.692 378.12 580.567 377.043C581.798 376.363 582.881 375.452 583.765 374.35C584.985 373.683 586.059 372.779 586.933 371.682C588.182 371.01 589.258 370.094 590.114 369.012C591.367 368.349 592.445 367.434 593.297 366.348C594.538 365.707 595.626 364.801 596.496 363.676C597.753 363.034 598.832 362.122 599.672 361.03C600.921 360.412 602.018 359.509 602.884 358.367C604.069 357.79 605.117 356.947 605.956 355.88C606.001 355.823 606.044 355.766 606.087 355.709C607.36 355.098 608.453 354.186 609.28 353.072C610.563 352.473 611.665 351.559 612.491 350.435C613.78 349.85 614.887 348.936 615.709 347.804C616.999 347.232 618.11 346.322 618.926 345.184C620.221 344.627 621.337 343.719 622.149 342.576C624.593 341.557 626.418 339.259 626.696 336.445L648.149 119.224ZM623.077 340.828C624.474 339.796 625.448 338.199 625.633 336.338L647.081 119.125C647.31 116.813 646.259 114.566 644.337 113.264C643.471 112.675 642.456 112.31 641.405 112.21L636.079 111.696C636.26 112.423 636.335 113.182 636.292 113.947L623.545 338.594C623.5 339.378 623.338 340.128 623.077 340.828ZM634.949 111.587C635.173 112.317 635.269 113.095 635.224 113.892L622.485 338.534C622.418 339.698 622.05 340.775 621.461 341.695C621.08 341.833 620.683 341.935 620.275 341.998C620.348 341.59 620.389 341.172 620.397 340.745L624.399 110.569L634.949 111.587ZM634.485 110.462C633.995 109.534 633.275 108.723 632.364 108.103C631.388 107.441 630.246 107.058 629.058 106.99L624.225 106.727C624.373 107.356 624.444 108.009 624.432 108.673L624.418 109.491L634.485 110.462ZM623.354 109.388L623.367 108.659C623.379 107.975 623.289 107.305 623.107 106.667L612.625 106.097L612.67 108.358L623.354 109.388ZM611.604 108.255L611.561 106.039L601.115 105.471L601.212 107.253L611.604 108.255ZM601.27 108.336L611.625 109.336L616.158 341.794L613.91 341.577L601.27 108.336ZM600.137 107.149L600.043 105.413L589.904 104.862L590.018 106.173L600.137 107.149ZM590.112 107.259L600.196 108.233L612.833 341.474L610.43 341.242L590.112 107.259ZM588.937 106.069L588.827 104.803L578.964 104.267L579.064 105.116L588.937 106.069ZM579.192 106.206L589.031 107.155L609.349 341.137L606.798 340.891L579.192 106.206ZM577.978 105.011L577.883 104.208L568.279 103.686L568.337 104.081L577.978 105.011ZM568.497 105.173L578.106 106.101L605.712 340.786L603.032 340.528L568.497 105.173ZM567.243 103.976L567.191 103.627L559.022 103.183L567.243 103.976ZM558.007 104.161L567.403 105.068L601.935 340.422L599.134 340.152L558.007 104.161ZM547.712 103.167L556.908 104.055L598.038 340.046L595.118 339.764L547.712 103.167ZM537.601 102.192L546.605 103.061L594.005 339.657L590.995 339.366L537.601 102.192ZM533.493 101.795L536.479 102.083L589.871 339.258L586.762 338.958L527.712 101.481L533.493 101.795ZM502.588 98.8126L504.955 99.0411L501.555 98.9902L499.527 98.88L502.588 98.8126ZM502.561 97.7367L498.349 97.3304L498.147 96.6847L506.181 96.2288L506.596 97.6479L502.561 97.7367ZM516.418 99.0733L511.648 98.6133L516.266 98.5117L516.418 99.0733ZM518.125 99.238L517.556 99.1832L517.368 98.4874L525.819 98.3015L526.082 99.357L518.125 99.238ZM533.648 100.735L531.229 100.502L536.14 100.575L536.207 100.875L533.648 100.735ZM497.197 97.2193L494.06 96.9167L497.049 96.747L497.197 97.2193ZM489.315 97.5316L493.506 97.9361L489.479 98.0247L489.315 97.5316ZM487.059 97.3139L488.151 97.4193L488.361 98.0493L485.436 98.1137L480.475 97.8439L480.421 97.6906L487.059 97.3139ZM487.052 96.2407L487.747 96.2013L487.153 94.4125L479.511 95.0961L479.662 95.5279L487.052 96.2407ZM478.49 95.4148L478.413 95.1944L477.267 95.2969L478.49 95.4148ZM471.503 95.8126L478.879 96.5245L478.941 96.7012L471.41 97.1287L470.944 95.8626L471.503 95.8126ZM471.489 94.7395L470.494 94.6436L469.763 92.6591L477.209 91.7634L478.047 94.1529L471.489 94.7395ZM469.309 94.5292L461.428 93.769L461.389 93.6666L468.668 92.7909L469.309 94.5292ZM461.857 94.8817L465.725 95.255L462.125 95.577L461.857 94.8817ZM455.992 94.3157L460.666 94.7668L461.017 95.6761L453.838 96.3182L453.169 94.6553L455.992 94.3157ZM455.967 93.2423L452.466 92.9045L451.753 91.1302L458.855 90.0688L459.896 92.7696L455.967 93.2423ZM451.268 92.789L444.817 92.1667L450.667 91.2924L451.268 92.789ZM444.065 93.1646L451.028 93.8366L444.665 94.602L444.065 93.1646ZM440.465 92.8171L442.86 93.0483L443.564 94.7345L437.254 95.4937L436.669 95.4618L435.825 93.5104L440.465 92.8171ZM440.436 91.7441L442.205 91.4797L440.957 88.4895L434.173 89.6904L434.827 91.2031L440.436 91.7441ZM435.31 92.3197L436.084 92.3944L435.388 92.4985L435.31 92.3197ZM433.609 91.0856L433.089 89.8823L428.872 90.6287L433.609 91.0856ZM424.962 91.3209L434.092 92.2021L434.291 92.6623L421.189 94.6201L418.324 94.4643C418.894 93.4627 419.725 92.6373 420.715 92.0727L424.962 91.3209ZM424.904 90.2459L424.558 90.2126C423.053 90.066 421.607 90.3842 420.364 91.0497L405.128 93.7467L404.73 93.725C403.394 93.6526 402.118 93.9306 400.992 94.4788L385.325 97.252L384.896 97.2456C383.733 97.2275 382.624 97.4656 381.622 97.9075L365.549 100.753L365.076 100.763C364.084 100.785 363.137 100.986 362.265 101.334L345.717 104.263L345.244 104.29C344.431 104.336 343.652 104.498 342.921 104.758L326.014 107.751L325.426 107.804C324.774 107.863 324.145 107.993 323.546 108.188L306.159 111.266L305.598 111.333C305.134 111.389 304.683 111.481 304.247 111.604L288.436 114.403L431.155 85.4118L432.653 88.8743L424.904 90.2459ZM418.497 92.4654C417.955 93.0301 417.499 93.682 417.155 94.4007L409.818 94.0017L418.497 92.4654ZM416.529 96.3942L408.472 97.5982L416.382 97.7165L416.466 96.8734C416.482 96.712 416.503 96.5521 416.529 96.3942ZM416.246 99.0971L410.754 99.7577L416.193 99.638L416.246 99.0971ZM417.269 99.5891L417.331 98.9666L418.563 98.8183L424.838 98.9121L417.269 99.5891ZM416.024 101.345L398.626 102.332L397.679 102.417L385.016 325.622C384.885 327.945 385.952 330.103 387.876 331.411L387.878 331.407C388.854 332.069 389.997 332.452 391.18 332.518L541.561 340.697L539.296 335.458L401.647 322.176C400.42 322.057 399.233 321.629 398.221 320.944C395.975 319.422 394.743 316.796 395.015 314.09L416.024 101.345ZM538.808 334.33L401.759 321.105C400.708 321.005 399.691 320.644 398.825 320.054L398.818 320.056C396.899 318.751 395.848 316.503 396.073 314.189L417.102 101.284L434.09 100.32L437.57 100.243L538.808 334.33ZM540.516 335.576L542.759 340.762L546.355 340.957L544.26 335.937L540.516 335.576ZM543.789 334.811L540.028 334.448L438.726 100.218L445.788 100.062L543.789 334.811ZM545.465 336.053L547.539 341.022L551.092 341.215L549.161 336.41L545.465 336.053ZM548.709 335.286L544.995 334.927L446.934 100.037L454.117 99.8791L548.709 335.286ZM550.358 336.526L552.268 341.279L555.772 341.469L554.002 336.877L550.358 336.526ZM553.569 335.755L549.907 335.401L455.258 99.854L462.565 99.6932L553.569 335.755ZM555.196 336.992L556.947 341.533L560.402 341.721L558.787 337.339L555.196 336.992ZM558.374 336.218L554.763 335.87L463.702 99.6682L468.447 99.5638L471.179 99.6046L558.374 336.218ZM559.968 337.453L561.564 341.785L564.966 341.97L563.502 337.794L559.968 337.453ZM563.109 336.675L559.555 336.332L472.329 99.6218L480.006 99.7365L563.109 336.675ZM564.675 337.907L566.122 342.032L569.459 342.214L568.14 338.241L564.675 337.907ZM567.769 337.125L564.282 336.788L481.145 99.7535L488.965 99.8704L567.769 337.125ZM569.308 338.354L570.611 342.277L573.891 342.455L572.711 338.682L569.308 338.354ZM572.363 337.568L568.937 337.238L490.097 99.8873L498.068 100.006L572.363 337.568ZM573.866 338.794L575.03 342.517L578.248 342.692L577.202 339.116L573.866 338.794ZM576.877 338.004L573.518 337.68L499.191 100.023L501.542 100.058L507.393 100.376L576.877 338.004ZM578.344 339.226L579.375 342.753L582.518 342.924L581.6 339.54L578.344 339.226ZM581.3 338.431L578.018 338.114L508.523 100.438L516.911 100.894L581.3 338.431ZM582.736 339.65L583.64 342.985L586.705 343.152L585.91 339.956L582.736 339.65ZM585.635 338.849L582.435 338.54L518.037 100.955L526.595 101.42L585.635 338.849ZM587.037 340.065L587.82 343.212L590.797 343.374L590.119 340.362L587.037 340.065ZM591.244 340.47L591.911 343.435L594.794 343.592L594.226 340.758L591.244 340.47ZM595.339 340.866L595.897 343.652L598.693 343.804L598.229 341.145L595.339 340.866ZM599.326 341.25L599.781 343.863L602.461 344.009L602.096 341.518L599.326 341.25ZM603.192 341.623L603.551 344.068L606.114 344.208L605.84 341.879L603.192 341.623ZM606.927 341.984L607.195 344.266L609.632 344.399L609.443 342.227L606.927 341.984ZM610.525 342.331L610.709 344.457L613.002 344.582L612.892 342.559L610.525 342.331ZM613.969 342.663L614.076 344.641L615.575 344.722C615.711 344.729 615.846 344.733 615.981 344.732C616.123 344.153 616.192 343.547 616.18 342.924L616.179 342.877L613.969 342.663ZM617.25 342.98C617.255 343.543 617.203 344.095 617.097 344.628C617.488 344.557 617.867 344.451 618.232 344.314C618.474 343.943 618.681 343.547 618.848 343.13C618.766 343.125 618.684 343.118 618.601 343.11L617.25 342.98ZM619.175 342.068C619.27 341.637 619.323 341.189 619.331 340.731L623.336 110.466L612.691 109.439L617.229 341.898L618.707 342.04C618.864 342.056 619.02 342.065 619.175 342.068ZM619.989 343.113C619.956 343.209 619.922 343.305 619.886 343.399C620.019 343.298 620.149 343.192 620.274 343.081C620.179 343.094 620.084 343.104 619.989 343.113ZM417.452 97.7325L417.527 96.9743C417.553 96.7201 417.593 96.4708 417.646 96.2271L421.225 95.6923L431.128 96.2307L418.514 97.7484L417.452 97.7325ZM620.4 102.937C621.399 103.614 622.18 104.528 622.69 105.577L612.605 105.029L612.573 103.4C612.562 102.827 612.49 102.262 612.362 101.714L616.717 101.78C618.04 101.798 619.31 102.199 620.4 102.937ZM611.51 103.426L611.54 104.971L601.057 104.401L600.902 101.543L611.257 101.698C611.412 102.255 611.498 102.835 611.51 103.426ZM599.833 101.527L599.985 104.343L589.811 103.789L589.601 101.374L599.833 101.527ZM588.528 101.358L588.734 103.731L578.838 103.193L578.605 101.21L588.528 101.358ZM577.529 101.194L577.757 103.134L568.121 102.61L567.892 101.05L577.529 101.194ZM566.811 101.034L567.034 102.551L557.637 102.04L557.437 100.894L566.811 101.034ZM556.354 100.877L556.546 101.981L547.374 101.482L547.226 100.741L556.354 100.877ZM546.137 100.725L546.277 101.422L537.318 100.935L537.241 100.592L546.137 100.725ZM470.729 98.3834L469.444 98.3135L466.704 98.469L468.247 98.4921L470.749 98.437L470.729 98.3834ZM462.625 96.8733L469.41 97.2422L470.29 97.1922L469.837 95.9616L462.526 96.6157L462.625 96.8733ZM479.068 97.7674L479.32 97.7811L479.31 97.7536L479.068 97.7674ZM460.772 96.7725L461.454 96.8096L461.417 96.7148L460.772 96.7725ZM459.786 97.7885L454.309 97.4908L454.548 98.0858L459.786 97.7885ZM452.071 94.7874L452.693 96.3332L445.218 95.9267L445.093 95.6268L452.071 94.7874ZM445.862 97.0316L445.675 97.0215L445.686 97.0473L445.862 97.0316ZM443.992 95.7593L444.035 95.8624L443.415 95.8287L443.992 95.7593ZM444.492 96.9571L437.289 96.5656L437.154 96.582L437.665 97.7647L444.571 97.1471L444.492 96.9571ZM426.476 94.9076L435.474 95.3968L434.729 93.6743L426.476 94.9076ZM415.937 95.4049L405.191 94.8207L401.326 95.5048C400.421 95.97 399.634 96.6402 399.031 97.457L401.916 97.5001L415.937 95.4049ZM397.764 97.4381C398.096 96.8838 398.496 96.3758 398.952 95.9252L390.978 97.3366L397.764 97.4381ZM391.131 100.19L396.958 99.3189C396.891 99.5627 396.835 99.8117 396.792 100.065L391.131 100.19ZM378.059 104.172L396.605 102.513L383.95 325.563C383.803 328.219 385.076 330.798 387.277 332.293C388.412 333.065 389.737 333.511 391.119 333.587L542.036 341.794L544.019 346.38L380.609 343.935C379.286 343.917 378.012 343.514 376.926 342.778L376.93 342.78C375.028 341.491 373.919 339.357 373.96 337.062L377.996 104.99C378 104.713 378.022 104.44 378.059 104.172ZM545.196 346.398L543.233 341.859L546.813 342.054L548.648 346.449L545.196 346.398ZM549.812 346.467L547.997 342.118L551.532 342.31L553.222 346.518L549.812 346.467ZM554.38 346.535L552.708 342.374L556.194 342.564L557.744 346.585L554.38 346.535ZM558.901 346.603L557.369 342.628L560.805 342.814L562.219 346.652L558.901 346.603ZM563.364 346.67L561.967 342.878L565.349 343.062L566.632 346.718L563.364 346.67ZM567.771 346.736L566.505 343.124L569.821 343.305L570.977 346.783L567.771 346.736ZM572.114 346.8L570.974 343.367L574.232 343.545L575.265 346.848L572.114 346.8ZM576.39 346.864L575.371 343.607L578.566 343.78L579.481 346.911L576.39 346.864ZM580.595 346.927L579.693 343.842L582.812 344.011L583.615 346.973L580.595 346.927ZM584.725 346.989L583.935 344.072L586.975 344.238L587.67 347.033L584.725 346.989ZM588.774 347.05L588.089 344.298L591.041 344.459L591.634 347.093L588.774 347.05ZM592.738 347.109L592.155 344.519L595.011 344.674L595.507 347.15L592.738 347.109ZM596.601 347.167L596.114 344.734L598.881 344.885L599.286 347.207L596.601 347.167ZM600.367 347.223L599.969 344.944L602.619 345.088L602.938 347.262L600.367 347.223ZM604.022 347.278L603.71 345.148L606.241 345.285L606.48 347.315L604.022 347.278ZM607.556 347.331L607.322 345.344L609.725 345.475L609.884 347.299C609.886 347.321 609.888 347.343 609.889 347.366L607.556 347.331ZM610.948 347.207L610.803 345.533L613.04 345.655C613.028 346.256 612.942 346.84 612.791 347.4C612.676 347.404 612.56 347.406 612.444 347.404L610.961 347.382C610.958 347.324 610.953 347.265 610.948 347.207ZM613.923 347.263C614.032 346.76 614.095 346.242 614.108 345.713L615.51 345.789C615.549 345.791 615.589 345.793 615.628 345.795C615.458 346.196 615.252 346.578 615.013 346.938C614.663 347.075 614.299 347.185 613.923 347.263ZM616.708 345.971C616.736 345.898 616.763 345.826 616.788 345.753C616.861 345.744 616.933 345.735 617.005 345.725C616.908 345.81 616.809 345.891 616.708 345.971ZM398.131 99.1435C398.028 99.4335 397.944 99.7332 397.881 100.041L399.81 99.9986L410.608 98.6994L401.967 98.5703L398.131 99.1435ZM610.863 100.625C610.336 99.485 609.506 98.4911 608.442 97.7691C607.238 96.9551 605.832 96.5421 604.373 96.5731L600.509 96.6581C600.621 97.1356 600.691 97.6273 600.717 98.1289L600.844 100.475L610.863 100.625ZM599.775 100.459L599.652 98.1864C599.624 97.6708 599.543 97.1674 599.413 96.6822L589.213 96.9066L589.508 100.306L599.775 100.459ZM588.435 100.289L588.143 96.9302L578.127 97.1506L578.479 100.141L588.435 100.289ZM577.403 100.124L577.056 97.1741L567.355 97.3876L567.735 99.9799L577.403 100.124ZM566.654 99.9637L566.279 97.4112L556.867 97.6183L557.251 99.8231L566.654 99.9637ZM556.167 99.8069L555.79 97.642L546.645 97.8432L547.011 99.67L556.167 99.8069ZM545.923 99.6537L545.565 97.867L536.671 98.0627L536.999 99.5203L545.923 99.6537ZM535.899 99.5038L535.58 98.0867L526.915 98.2774L527.188 99.3735L535.899 99.5038ZM435.136 99.066L436.833 99.0913L434.177 99.2421L432.838 99.2716L435.136 99.066ZM451.739 98.2452L446.151 98.1617L446.119 98.0835L453.143 97.455L453.422 98.1497L451.739 98.2452ZM435.079 97.9961L426.469 97.8673L436.044 96.7154L436.541 97.8653L435.079 97.9961ZM385.407 98.3228L395.41 98.4723L382.67 100.376L379.857 100.438C380.45 99.8123 381.16 99.2995 381.95 98.9347L385.407 98.3228ZM379.395 99.3871C379.044 99.7174 378.724 100.08 378.439 100.469L372.55 100.599L379.395 99.3871ZM377.466 102.232L374.991 102.602L377.378 102.466C377.393 102.423 377.409 102.379 377.425 102.336C377.439 102.301 377.452 102.267 377.466 102.232ZM376.966 104.27L362.448 105.569L358.84 106.003C358.43 106.918 358.21 107.935 358.231 109.002L362.9 348.5C362.946 350.771 364.091 352.883 365.969 354.157L365.965 354.154C367.166 354.972 368.572 355.385 370.038 355.353L546.223 351.476L544.484 347.454L380.588 345.002C379.058 344.978 377.582 344.516 376.32 343.661C374.127 342.171 372.841 339.695 372.887 337.043L376.922 104.971C376.927 104.735 376.941 104.501 376.966 104.27ZM545.661 347.472L547.381 351.451L550.706 351.378L549.096 347.523L545.661 347.472ZM550.26 347.541L551.852 351.353L555.136 351.28L553.654 347.591L550.26 347.541ZM554.812 347.609L556.277 351.255L559.517 351.184L558.158 347.659L554.812 347.609ZM559.315 347.676L560.658 351.159L563.854 351.089L562.614 347.725L559.315 347.676ZM563.76 347.743L564.983 351.064L568.132 350.994L567.008 347.791L563.76 347.743ZM568.148 347.808L569.256 350.97L572.345 350.902L571.333 347.856L568.148 347.808ZM572.47 347.873L573.468 350.877L576.504 350.81L575.6 347.92L572.47 347.873ZM576.725 347.937L577.616 350.786L580.595 350.72L579.795 347.983L576.725 347.937ZM580.909 347.999L581.697 350.696L584.607 350.632L583.906 348.044L580.909 347.999ZM585.016 348.061L585.706 350.608L588.544 350.545L587.937 348.104L585.016 348.061ZM589.04 348.121L589.637 350.521L592.393 350.461L591.875 348.163L589.04 348.121ZM592.979 348.18L593.487 350.436L596.153 350.378L595.721 348.221L592.979 348.18ZM596.816 348.237L597.24 350.354L599.825 350.297L599.473 348.277L596.816 348.237ZM600.553 348.293L600.898 350.273L603.372 350.219L603.095 348.331L600.553 348.293ZM604.179 348.347L604.45 350.195L606.786 350.144C606.778 349.928 606.762 349.711 606.736 349.494L606.606 348.384L604.179 348.347ZM607.681 348.4L607.795 349.367C607.825 349.618 607.844 349.87 607.852 350.12L609.316 350.088C609.413 350.086 609.509 350.082 609.605 350.076C609.761 349.548 609.86 348.998 609.897 348.433L607.681 348.4ZM610.966 348.449C610.937 348.946 610.865 349.434 610.754 349.908C611.112 349.824 611.459 349.713 611.793 349.578C612.029 349.228 612.235 348.858 612.409 348.471L610.966 348.449ZM613.59 348.402C613.57 348.455 613.55 348.507 613.529 348.559C613.602 348.501 613.674 348.441 613.745 348.38C613.693 348.388 613.641 348.395 613.59 348.402ZM378.557 102.399C378.609 102.279 378.665 102.16 378.724 102.044L382.693 101.451L388.871 101.315L381.017 102.26L378.557 102.399ZM596.487 92.5866C597.623 93.3569 598.494 94.404 599.034 95.6131L589.12 95.8313L588.861 92.8579C588.823 92.4127 588.75 91.9754 588.646 91.5492L592.023 91.3575C593.625 91.2652 595.168 91.6904 596.487 92.5866ZM587.797 92.9494L588.05 95.8549L578.001 96.0761L577.542 92.1792L587.559 91.6109C587.677 92.0447 587.758 92.4923 587.797 92.9494ZM576.476 92.2398L576.93 96.0997L567.197 96.3139L566.681 92.7956L576.476 92.2398ZM565.611 92.8563L566.122 96.3376L556.68 96.5454L556.13 93.3943L565.611 92.8563ZM555.06 93.4551L555.603 96.5691L546.43 96.771L545.871 93.9765L555.06 93.4551ZM544.797 94.0374L545.35 96.7948L536.43 96.9912L535.879 94.5435L544.797 94.0374ZM534.796 94.605L535.338 97.0152L526.649 97.2065L526.124 95.0971L534.796 94.605ZM525.038 95.1587L525.553 97.2306L517.078 97.4172L516.595 95.6378L525.038 95.1587ZM515.503 95.6998L515.976 97.4414L507.701 97.6236L507.275 96.1667L515.503 95.6998ZM400.946 101.049L399.813 101.074L397.943 101.299L398.517 101.266L400.946 101.049ZM374.233 101.637L365.615 101.826L362.588 102.362C361.952 102.625 361.362 102.978 360.836 103.405L363.355 103.262L374.233 101.637ZM359.197 103.498C359.399 103.27 359.613 103.053 359.839 102.849L354.742 103.751L359.197 103.498ZM339.887 108.283L357.63 106.148C357.31 107.045 357.144 108.013 357.163 109.019L361.836 348.52C361.885 351.135 363.206 353.572 365.37 355.039C366.755 355.981 368.378 356.456 370.061 356.42L546.68 352.532L548.206 356.061L359.464 366.774C357.869 366.865 356.322 366.438 355.003 365.541L355.007 365.544C353.117 364.262 351.961 362.221 351.838 359.942L338.459 113.015C338.364 111.252 338.908 109.599 339.887 108.283ZM549.347 355.996L547.838 352.506L551.146 352.433L552.558 355.814L549.347 355.996ZM553.688 355.75L552.292 352.408L555.56 352.336L556.86 355.57L553.688 355.75ZM557.985 355.506L556.701 352.311L559.924 352.24L561.115 355.328L557.985 355.506ZM562.24 355.264L561.065 352.215L564.243 352.145L565.328 355.089L562.24 355.264ZM566.443 355.026L565.373 352.12L568.502 352.051L569.485 354.853L566.443 355.026ZM570.596 354.79L569.627 352.026L572.696 351.959L573.58 354.621L570.596 354.79ZM574.691 354.558L573.819 351.934L576.834 351.868L577.624 354.391L574.691 354.558ZM578.725 354.329L577.947 351.843L580.904 351.778L581.602 354.165L578.725 354.329ZM582.694 354.103L582.007 351.754L584.894 351.69L585.505 353.944L582.694 354.103ZM586.594 353.882L585.993 351.666L588.807 351.604L589.335 353.726L586.594 353.882ZM590.419 353.665L589.9 351.58L592.631 351.52L593.08 353.514L590.419 353.665ZM594.166 353.452L593.726 351.496L596.366 351.438L596.74 353.306L594.166 353.452ZM597.819 353.245L597.452 351.414L600.01 351.358L600.314 353.103L597.819 353.245ZM601.381 353.043L601.083 351.334L603.528 351.28L603.587 351.684C603.648 352.095 603.676 352.505 603.674 352.912L601.381 353.043ZM604.645 351.522L604.606 351.256L606.749 351.209C606.695 351.735 606.588 352.251 606.428 352.752C606.347 352.759 606.266 352.765 606.184 352.77L604.741 352.852C604.741 352.411 604.709 351.966 604.645 351.522ZM607.595 352.551C607.707 352.104 607.783 351.648 607.823 351.186L609.193 351.155C609.018 351.526 608.813 351.882 608.581 352.218C608.264 352.351 607.934 352.463 607.595 352.551ZM610.362 351.145C610.367 351.132 610.372 351.119 610.377 351.106C610.383 351.091 610.389 351.075 610.395 351.06L610.418 351.056L610.441 351.052C610.454 351.05 610.467 351.048 610.48 351.046C610.454 351.068 610.429 351.089 610.403 351.111C610.389 351.122 610.376 351.134 610.362 351.145ZM587.185 90.557C586.625 89.2901 585.718 88.1917 584.54 87.3921C583.119 86.4276 581.394 85.984 579.672 86.1355L576.78 86.3943C576.881 86.7829 576.955 87.1804 577.002 87.5844L577.417 91.1114L587.185 90.557ZM576.35 91.172L575.943 87.7124C575.894 87.2961 575.812 86.8879 575.699 86.491L565.884 87.369L566.524 91.7297L576.35 91.172ZM565.455 91.7904L564.82 87.4643L555.246 88.3207L555.945 92.3302L565.455 91.7904ZM554.875 92.391L554.182 88.416L544.922 89.2443L545.658 92.9142L554.875 92.391ZM544.585 92.9751L543.856 89.3397L534.888 90.142L535.64 93.4828L544.585 92.9751ZM534.557 93.5442L533.813 90.2382L525.11 91.0168L525.861 94.0379L534.557 93.5442ZM524.774 94.0996L524.032 91.1133L515.574 91.8699L516.309 94.5801L524.774 94.0996ZM515.217 94.6421L514.492 91.9667L506.262 92.703L506.966 95.1104L515.217 94.6421ZM505.872 95.1725L505.178 92.7999L497.157 93.5175L497.817 95.6297L505.872 95.1725ZM496.719 95.692L496.07 93.6148L488.246 94.3147L488.852 96.1386L496.719 95.692ZM363.428 104.33L364.154 104.288L362.49 104.489L362.177 104.517L363.428 104.33ZM345.833 105.328L351.793 104.99L344.2 106.125L342.099 106.313C342.45 106.11 342.82 105.936 343.206 105.793L345.833 105.328ZM340.262 106.314C340.194 106.373 340.127 106.434 340.061 106.495L338.406 106.643L340.262 106.314ZM338.498 108.45L324.958 110.079L321.33 110.621C319.529 112.147 318.467 114.496 318.686 117.021L340.774 371.377C340.971 373.635 342.16 375.658 344.034 376.93L344.032 376.934C345.453 377.899 347.182 378.345 348.897 378.195L549.995 360.199L548.657 357.104L359.521 367.84C357.686 367.943 355.916 367.455 354.401 366.427C352.234 364.958 350.91 362.614 350.766 360.001L337.39 113.07C337.299 111.394 337.713 109.805 338.498 108.45ZM549.798 357.039L551.121 360.098L554.23 359.82L552.993 356.858L549.798 357.039ZM554.123 356.794L555.345 359.72L558.417 359.445L557.28 356.615L554.123 356.794ZM558.405 356.551L559.528 359.346L562.559 359.074L561.518 356.374L558.405 356.551ZM562.644 356.31L563.671 358.975L566.661 358.707L565.714 356.136L562.644 356.31ZM566.829 356.072L567.764 358.609L570.71 358.345L569.853 355.901L566.829 356.072ZM570.964 355.838L571.809 358.247L574.698 357.988L573.928 355.669L570.964 355.838ZM575.039 355.606L575.797 357.89L578.638 357.636L577.952 355.441L575.039 355.606ZM579.053 355.379L579.728 357.538L582.516 357.289L581.91 355.216L579.053 355.379ZM583.001 355.154L583.597 357.192L586.319 356.948L585.79 354.996L583.001 355.154ZM586.879 354.934L587.399 356.852L590.053 356.614L589.597 354.78L586.879 354.934ZM590.681 354.719L591.128 356.518L593.704 356.287L593.317 354.569L590.681 354.719ZM594.404 354.507L594.783 356.191L597.273 355.968L596.952 354.363L594.404 354.507ZM598.031 354.301L598.339 355.841L598.345 355.872L600.562 355.674C600.584 355.176 600.563 354.671 600.493 354.162L598.031 354.301ZM601.555 354.101C601.619 354.598 601.642 355.091 601.628 355.578L603.059 355.45C603.124 355.444 603.188 355.438 603.251 355.431C603.411 354.961 603.526 354.477 603.596 353.985L601.555 354.101ZM604.679 353.924C604.629 354.354 604.548 354.779 604.437 355.197C604.763 355.104 605.08 354.991 605.386 354.857C605.612 354.534 605.811 354.198 605.984 353.85L604.679 353.924ZM607.212 353.723L607.211 353.725L607.214 353.723L607.212 353.723ZM572.597 82.2001C573.805 83.02 574.74 84.15 575.322 85.4524L565.729 86.3103L565.142 82.311C565.088 81.9388 565.011 81.5722 564.911 81.2131L567.327 80.9225C569.186 80.7007 571.054 81.1549 572.597 82.2001ZM564.087 82.4689L564.665 86.4056L555.062 87.2644L554.231 82.4979L563.836 81.3424C563.946 81.7095 564.031 82.0859 564.087 82.4689ZM553.173 82.6253L553.998 87.3596L544.711 88.1903L543.822 83.7502L553.173 82.6253ZM542.762 83.8776L543.645 88.2856L534.651 89.09L533.723 84.965L542.762 83.8776ZM532.655 85.0935L533.576 89.1862L524.849 89.9668L523.899 86.1468L532.655 85.0935ZM522.829 86.2755L523.771 90.0632L515.29 90.8218L514.335 87.2973L522.829 86.2755ZM513.261 87.4265L514.207 90.9186L505.956 91.6566L505.009 88.4192L513.261 87.4265ZM503.935 88.5484L504.872 91.7536L496.83 92.4729L495.905 89.5144L503.935 88.5484ZM494.828 89.6439L495.743 92.5701L487.9 93.2716L487.007 90.5847L494.828 89.6439ZM485.925 90.715L486.806 93.3694L479.146 94.0546L478.296 91.6326L485.925 90.715ZM326.245 108.808L326.107 108.82L325.809 108.873L326.245 108.808ZM302.729 113.401L319.588 110.881C318.192 112.563 317.43 114.773 317.633 117.113L339.717 371.467C339.942 374.047 341.296 376.36 343.439 377.815C345.057 378.917 347.035 379.428 348.993 379.251L550.441 361.23L551.617 363.947L338.335 389.607C336.48 389.831 334.607 389.374 333.065 388.329L333.062 388.333C331.2 387.069 329.98 385.06 329.716 382.821L298.923 121.039C298.549 117.873 300.14 114.919 302.729 113.401ZM552.728 363.813L551.567 361.129L554.661 360.852L555.746 363.45L552.728 363.813ZM556.847 363.318L555.776 360.752L558.832 360.479L559.829 362.959L556.847 363.318ZM560.927 362.827L559.943 360.38L562.958 360.11L563.869 362.473L560.927 362.827ZM564.969 362.341L564.07 360.01L567.043 359.744L567.872 361.992L564.969 362.341ZM568.962 361.86L568.146 359.646L571.074 359.384L571.822 361.516L568.962 361.86ZM572.91 361.385L572.173 359.286L575.044 359.029L575.715 361.048L572.91 361.385ZM576.803 360.917L576.143 358.93L578.964 358.678L579.561 360.585L576.803 360.917ZM580.641 360.455L580.054 358.58L582.821 358.333L583.346 360.13L580.641 360.455ZM584.418 360.001L583.902 358.236L586.603 357.995L587.06 359.683L584.418 360.001ZM588.131 359.554L587.682 357.898L590.314 357.663L590.707 359.244L588.131 359.554ZM591.774 359.116L591.389 357.567L593.941 357.338L594.145 358.244C594.188 358.435 594.224 358.626 594.255 358.817L591.774 359.116ZM595.19 358.002L595.019 357.242L597.43 357.026C597.471 357.498 597.472 357.968 597.436 358.435L595.32 358.689C595.285 358.461 595.242 358.231 595.19 358.002ZM598.514 358.305C598.54 357.85 598.534 357.391 598.494 356.931L600.44 356.757C600.356 357.222 600.233 357.677 600.074 358.116C600.027 358.123 599.979 358.129 599.932 358.134L598.514 358.305ZM601.274 357.853C601.385 357.463 601.472 357.064 601.532 356.659L602.774 356.548C602.602 356.88 602.406 357.202 602.185 357.513C601.89 357.645 601.586 357.758 601.274 357.853ZM563.448 80.3111C562.843 78.984 561.881 77.83 560.655 76.9976C558.989 75.8652 556.972 75.4085 554.974 75.7046L553.037 75.994C553.138 76.3376 553.219 76.6893 553.282 77.048L554.047 81.4422L563.448 80.3111ZM552.989 81.5696L552.233 77.2318C552.168 76.8635 552.081 76.5035 551.971 76.1533L542.581 77.5566L543.611 82.6978L552.989 81.5696ZM542.551 82.8253L541.527 77.7141L532.397 79.0784L533.487 83.9159L542.551 82.8253ZM532.419 84.0444L531.336 79.237L522.509 80.5562L523.639 85.1007L532.419 84.0444ZM522.569 85.2294L521.446 80.715L512.897 81.9927L514.052 86.2541L522.569 85.2294ZM512.978 86.3833L511.831 82.1519L503.539 83.3911L504.705 87.3786L512.978 86.3833ZM503.631 87.5079L502.473 83.5504L494.416 84.7545L495.58 88.4764L503.631 87.5079ZM494.503 88.606L493.349 84.914L485.513 86.085L486.663 89.5492L494.503 88.606ZM485.581 89.6795L484.44 86.2453L476.807 87.386L477.934 90.5995L485.581 89.6795ZM476.847 90.7302L475.73 87.5469L468.289 88.6589L469.383 91.6282L476.847 90.7302ZM468.288 91.7599L467.205 88.8209L459.939 89.9068L460.992 92.6378L468.288 91.7599ZM300.545 113.727C298.604 115.586 297.523 118.301 297.86 121.164L328.655 382.953C328.953 385.496 330.341 387.78 332.461 389.219C334.213 390.41 336.342 390.925 338.453 390.671L552.06 364.972L553.09 367.354L327.763 401.024C325.769 401.323 323.748 400.864 322.082 399.731L322.078 399.729C320.222 398.474 318.971 396.479 318.646 394.258L279.147 125.049C278.546 120.944 281.176 117.088 285.11 116.077L286.684 115.798L300.545 113.727ZM553.171 364.838L554.188 367.19L557.124 366.751L556.174 364.477L553.171 364.838ZM557.276 364.344L558.212 366.589L561.113 366.155L560.242 363.988L557.276 364.344ZM561.34 363.855L562.199 365.993L565.061 365.565L564.266 363.503L561.34 363.855ZM565.366 363.371L566.149 365.403L568.973 364.981L568.252 363.024L565.366 363.371ZM569.342 362.893L570.052 364.819L572.835 364.404L572.185 362.551L569.342 362.893ZM573.272 362.42L573.912 364.243L576.64 363.835L576.059 362.085L573.272 362.42ZM577.147 361.954L577.719 363.674L580.401 363.273L579.886 361.624L577.147 361.954ZM580.966 361.494L581.472 363.113L584.104 362.72L583.651 361.171L580.966 361.494ZM584.723 361.042L585.167 362.561L587.736 362.177L587.343 360.727L584.723 361.042ZM588.414 360.598L588.799 362.018L591.219 361.656C591.175 361.247 591.102 360.835 591 360.425L590.967 360.291L588.414 360.598ZM592.034 360.163L592.035 360.166C592.145 360.61 592.225 361.055 592.275 361.499L594.307 361.195C594.356 360.763 594.374 360.325 594.358 359.883L592.034 360.163ZM595.425 359.755C595.444 360.184 595.434 360.611 595.398 361.032L596.808 360.821C596.82 360.819 596.832 360.818 596.844 360.816C596.863 360.813 596.882 360.81 596.901 360.807C597.06 360.391 597.185 359.965 597.277 359.532L595.425 359.755ZM598.389 359.398C598.324 359.774 598.237 360.145 598.127 360.511C598.42 360.416 598.705 360.305 598.982 360.177C599.195 359.884 599.388 359.576 599.561 359.257L598.389 359.398ZM548.719 71.7935C549.979 72.6479 550.954 73.7979 551.577 75.1364L542.371 76.512L541.422 71.7746C541.352 71.4267 541.265 71.0855 541.16 70.7519L542.622 70.4931C544.759 70.1162 546.927 70.578 548.719 71.7935ZM540.381 71.9908L541.318 76.6694L532.163 78.0374L530.931 72.5626L540.101 70.9393C540.215 71.2808 540.309 71.6318 540.381 71.9908ZM529.876 72.7493L531.102 78.1959L522.251 79.5186L520.96 74.3276L529.876 72.7493ZM519.904 74.5145L521.188 79.6774L512.616 80.9582L511.283 76.0405L519.904 74.5145ZM510.225 76.2278L511.551 81.1175L503.237 82.3597L501.877 77.7056L510.225 76.2278ZM500.819 77.8929L502.172 82.519L494.094 83.726L492.718 79.3268L500.819 77.8929ZM491.66 79.5142L493.027 83.8855L485.172 85.0592L483.793 80.9069L491.66 79.5142ZM482.729 81.0951L484.099 85.2195L476.448 86.3629L475.075 82.4499L482.729 81.0951ZM474.009 82.6387L475.372 86.5237L467.913 87.6382L466.557 83.9579L474.009 82.6387ZM465.483 84.1479L466.829 87.8002L459.547 88.8884L458.215 85.4345L465.483 84.1479ZM457.142 85.6245L458.462 89.0504L451.345 90.114L450.045 86.8807L457.142 85.6245ZM448.971 87.0709L450.259 90.2763L443.294 91.317L442.034 88.2988L448.971 87.0709ZM266.135 119.436L281.475 116.721C279.001 118.681 277.606 121.871 278.096 125.209L317.595 394.418C317.965 396.933 319.383 399.197 321.485 400.62C323.371 401.899 325.659 402.418 327.921 402.08L553.528 368.367L554.43 370.453L317.2 412.447C315.061 412.828 312.899 412.364 311.103 411.146L311.1 411.15C309.224 409.883 307.976 407.946 307.587 405.712L259.379 129.075C258.594 124.555 261.622 120.236 266.135 119.436ZM555.517 370.261L554.627 368.203L557.548 367.767L558.377 369.754L555.517 370.261ZM559.454 369.564L558.636 367.604L561.522 367.173L562.282 369.063L559.454 369.564ZM563.356 368.873L562.608 367.011L565.454 366.585L566.146 368.379L563.356 368.873ZM567.223 368.189L566.542 366.423L569.35 366.003L569.976 367.701L567.223 368.189ZM571.044 367.512L570.429 365.842L573.194 365.429L573.757 367.032L571.044 367.512ZM574.824 366.843L574.271 365.268L576.982 364.863L577.483 366.372L574.824 366.843ZM578.552 366.183L578.06 364.702L580.724 364.304L581.167 365.72L578.552 366.183ZM582.228 365.532L581.794 364.144L584.406 363.753L584.709 364.791C584.737 364.887 584.764 364.983 584.789 365.079L582.228 365.532ZM585.731 364.491L585.469 363.594L587.997 363.217C588.082 363.637 588.138 364.059 588.166 364.481L585.84 364.893C585.807 364.759 585.77 364.624 585.731 364.491ZM589.223 364.294C589.191 363.882 589.135 363.469 589.054 363.059L591.271 362.727C591.267 363.139 591.235 363.547 591.177 363.948L589.223 364.294ZM592.277 363.753C592.32 363.362 592.341 362.967 592.338 362.568L594.108 362.303C594.008 362.711 593.88 363.11 593.724 363.497C593.712 363.499 593.699 363.502 593.687 363.504L592.277 363.753ZM594.974 363.168C595.081 362.83 595.17 362.485 595.241 362.134L596.355 361.968C596.25 362.154 596.137 362.336 596.018 362.516C595.947 362.623 595.874 362.728 595.798 362.831C595.532 362.957 595.257 363.07 594.974 363.168ZM539.689 69.927C539.042 68.5878 538.052 67.4386 536.788 66.5815C534.866 65.2803 532.553 64.8119 530.272 65.2776L529.277 65.4799C529.391 65.8158 529.489 66.1596 529.568 66.51L530.696 71.519L539.689 69.927ZM529.641 71.7057L528.525 66.7472C528.444 66.3881 528.342 66.0367 528.219 65.6947L519.266 67.5135L520.702 73.2881L529.641 71.7057ZM519.646 73.4751L518.216 67.7267L509.509 69.4953L511.003 75.005L519.646 73.4751ZM509.945 75.1923L508.458 69.7088L500.039 71.4192L501.575 76.6739L509.945 75.1923ZM500.517 76.8611L498.989 71.6325L490.83 73.2897L492.397 78.2985L500.517 76.8611ZM491.338 78.486L489.78 73.5031L481.867 75.1104L483.452 79.8819L491.338 78.486ZM482.389 80.0701L480.813 75.3246L473.124 76.8864L474.717 81.4282L482.389 80.0701ZM473.651 81.617L472.067 77.1013L464.59 78.6201L466.181 82.9391L473.651 81.617ZM465.108 83.1292L463.526 78.8362L456.242 80.3159L457.823 84.4186L465.108 83.1292ZM456.75 84.6086L455.178 80.5318L448.074 81.975L449.638 85.8676L456.75 84.6086ZM448.564 86.0578L447.01 82.1912L440.073 83.6004L441.612 87.2883L448.564 86.0578ZM440.535 87.479L439.006 83.817L432.228 85.1938L433.737 88.6823L440.535 87.479ZM262.659 119.639L246.342 122.954C241.702 123.897 238.683 128.443 239.611 133.09L296.529 417.156C296.972 419.373 298.247 421.294 300.117 422.563L300.115 422.557C302.041 423.86 304.351 424.326 306.635 423.863L555.652 373.279L554.866 371.461L317.381 413.5C314.971 413.925 312.527 413.408 310.501 412.032C308.386 410.596 306.978 408.415 306.538 405.896L258.326 129.256C257.649 125.367 259.485 121.603 262.659 119.639ZM555.952 371.269L556.727 373.061L559.521 372.493L558.799 370.765L555.952 371.269ZM559.876 370.574L560.587 372.277L563.348 371.716L562.689 370.076L559.876 370.574ZM563.763 369.886L564.412 371.5L567.136 370.946L566.538 369.395L563.763 369.886ZM567.615 369.204L568.203 370.73L570.89 370.184L570.351 368.72L567.615 369.204ZM571.42 368.531L571.95 369.969L574.598 369.431L574.115 368.054L571.42 368.531ZM575.182 367.865L575.656 369.216L578.252 368.688L577.824 367.397L575.182 367.865ZM578.893 367.208L579.313 368.473L581.816 367.964C581.747 367.632 581.662 367.302 581.559 366.974L581.488 366.749L578.893 367.208ZM582.55 366.561L582.578 366.65C582.692 367.015 582.787 367.382 582.862 367.752L585.102 367.297C585.093 366.907 585.059 366.516 585.002 366.127L582.55 366.561ZM586.051 365.941C586.108 366.32 586.145 366.701 586.162 367.082L588.047 366.699C588.112 366.324 588.155 365.945 588.174 365.565L586.051 365.941ZM589.251 365.374C589.241 365.742 589.212 366.108 589.163 366.472L590.553 366.19C590.705 365.828 590.834 365.456 590.939 365.076L589.251 365.374ZM592.09 364.872C592.017 365.196 591.929 365.517 591.825 365.831C592.091 365.734 592.351 365.624 592.604 365.501C592.798 365.239 592.978 364.967 593.142 364.686L592.09 364.872ZM524.86 61.3653C526.116 62.2175 527.116 63.3613 527.788 64.69L519.007 66.4735L517.706 61.2405C517.617 60.8815 517.509 60.5293 517.383 60.1853L517.916 60.0636C520.305 59.5208 522.836 59.9958 524.86 61.3653ZM516.669 61.5037L517.958 66.6867L509.229 68.4598L507.591 62.4169L516.329 60.4253C516.464 60.7756 516.577 61.1356 516.669 61.5037ZM506.546 62.655L508.177 68.6733L499.737 70.3878L498.043 64.593L506.546 62.655ZM497 64.8307L498.687 70.601L490.509 72.2622L488.771 66.706L497 64.8307ZM487.729 66.9436L489.459 72.4755L481.527 74.0866L479.758 68.7602L487.729 66.9436ZM478.712 68.9987L480.473 74.3008L472.766 75.8661L470.976 70.7617L478.712 68.9987ZM469.927 71.0007L471.709 76.0809L464.215 77.6031L462.413 72.7132L469.927 71.0007ZM461.358 72.9537L463.151 77.8192L455.851 79.3021L454.046 74.6202L461.358 72.9537ZM452.992 74.8603L454.788 79.518L447.668 80.9642L445.868 76.484L452.992 74.8603ZM444.813 76.7244L446.604 81.1803L439.652 82.5925L437.863 78.3083L444.813 76.7244ZM436.807 78.549L438.586 82.8091L431.794 84.1886L430.023 80.0951L436.807 78.549ZM428.961 80.3372L430.721 84.4066L250.34 121.046L428.961 80.3372ZM226.545 126.469L244.539 122.368C240.244 124.042 237.624 128.627 238.56 133.295L295.478 417.361C295.977 419.856 297.41 422.013 299.513 423.443C301.677 424.909 304.278 425.433 306.843 424.91L556.086 374.283L556.772 375.867L296.072 435.285C293.683 435.828 291.156 435.356 289.131 433.98L289.128 433.984C287.262 432.717 285.96 430.807 285.464 428.602L219.842 137.11C218.762 132.33 221.771 127.557 226.545 126.469ZM557.836 375.625L557.162 374.064L559.941 373.5L560.568 375.002L557.836 375.625ZM561.624 374.761L561.007 373.283L563.753 372.726L564.324 374.146L561.624 374.761ZM565.379 373.906L564.818 372.509L567.526 371.959L568.042 373.298L565.379 373.906ZM569.1 373.057L568.593 371.742L571.265 371.2L571.729 372.458L569.1 373.057ZM572.779 372.219L572.324 370.985L574.956 370.45L575.268 371.341C575.302 371.437 575.334 371.533 575.365 371.63L572.779 372.219ZM576.275 370.982L576.014 370.235L578.577 369.715C578.678 370.088 578.759 370.465 578.819 370.842L576.411 371.391C576.368 371.254 576.323 371.118 576.275 370.982ZM579.867 370.603C579.807 370.234 579.728 369.866 579.631 369.5L581.976 369.024C582.011 369.387 582.027 369.75 582.022 370.112L579.867 370.603ZM583.089 369.869C583.085 369.516 583.065 369.163 583.027 368.811L585.068 368.396C585.037 368.751 584.986 369.103 584.916 369.453L583.089 369.869ZM586.045 369.195C586.097 368.857 586.134 368.517 586.154 368.176L587.773 367.847C587.665 368.2 587.535 368.548 587.385 368.89L586.045 369.195ZM588.685 368.496C588.786 368.203 588.873 367.907 588.948 367.608L589.931 367.408C589.77 367.673 589.596 367.929 589.41 368.177C589.175 368.293 588.933 368.4 588.685 368.496ZM515.876 59.4279C515.183 58.1186 514.178 56.9892 512.934 56.1452C510.775 54.6811 508.094 54.2075 505.563 54.8456L505.477 54.8673C505.62 55.2288 505.743 55.5994 505.845 55.9776L507.31 61.3804L515.876 59.4279ZM506.265 61.6185L504.813 56.2602C504.708 55.8742 504.58 55.497 504.429 55.1307L495.903 57.2748L497.741 63.5614L506.265 61.6185ZM496.698 63.7991L494.867 57.5354L486.557 59.6251L488.45 65.6791L496.698 63.7991ZM487.407 65.9168L485.521 59.8855L477.482 61.9072L479.418 67.7377L487.407 65.9168ZM478.372 67.9762L476.443 62.1684L468.649 64.1282L470.619 69.7434L478.372 67.9762ZM469.57 69.9825L467.608 64.39L460.047 66.2915L462.039 71.6989L469.57 69.9825ZM460.984 71.9394L459 66.5548L451.649 68.4032L453.656 73.6097L460.984 71.9394ZM452.603 73.8499L450.604 68.666L443.449 70.4652L445.463 75.4772L452.603 73.8499ZM444.409 75.7175L442.404 70.7281L435.431 72.4816L437.444 77.3049L444.409 75.7175ZM436.388 77.5456L434.384 72.7449L427.584 74.4549L429.591 79.095L436.388 77.5456ZM428.528 79.3371L426.531 74.7196L206.752 129.987C201.849 131.222 198.852 136.219 200.07 141.122L274.402 440.044C274.945 442.233 276.274 444.138 278.14 445.404L278.138 445.398C280.294 446.86 282.979 447.336 285.507 446.702L557.794 378.23L557.201 376.86L296.301 436.324C293.627 436.934 290.794 436.401 288.525 434.863C286.432 433.445 284.974 431.301 284.419 428.833L218.797 137.34C217.593 131.991 220.966 126.645 226.312 125.428L428.528 79.3371ZM558.266 376.617L558.848 377.965L561.524 377.292L560.984 375.998L558.266 376.617ZM562.04 375.757L562.571 377.029L565.215 376.364L564.725 375.145L562.04 375.757ZM565.78 374.905L566.261 376.101L568.87 375.445L568.429 374.301L565.78 374.905ZM569.486 374.06L569.919 375.181L572.443 374.547C572.352 374.201 572.244 373.859 572.12 373.519L572.099 373.464L569.486 374.06ZM573.149 373.225C573.276 373.576 573.386 373.93 573.479 374.286L575.806 373.701C575.768 373.353 575.712 373.005 575.638 372.658L573.149 373.225ZM576.68 372.42C576.753 372.759 576.81 373.099 576.852 373.438L578.934 372.914C578.949 372.579 578.948 372.243 578.93 371.907L576.68 372.42ZM579.989 371.666C580.012 371.992 580.02 372.317 580.014 372.643L581.775 372.2C581.849 371.875 581.906 371.549 581.947 371.22L579.989 371.666ZM583.046 370.969C583.018 371.285 582.976 371.599 582.92 371.912L584.224 371.584C584.369 371.266 584.496 370.942 584.606 370.614L583.046 370.969ZM585.802 370.341C585.728 370.616 585.643 370.888 585.546 371.158C585.783 371.061 586.014 370.956 586.238 370.841C586.412 370.613 586.575 370.376 586.729 370.13L585.802 370.341ZM501.007 50.9187C502.238 51.754 503.244 52.863 503.956 54.1466L495.602 56.2473L493.985 50.7146C493.867 50.3121 493.726 49.9183 493.563 49.5349C496.128 48.9401 498.82 49.438 501.007 50.9187ZM492.959 51.0127L494.566 56.5079L486.237 58.6025L484.201 52.0916L492.521 49.8128C492.692 50.2012 492.839 50.602 492.959 51.0127ZM483.172 52.3734L485.201 58.8629L477.143 60.8894L475.053 54.597L483.172 52.3734ZM474.022 54.8795L476.105 61.1505L468.294 63.1148L466.161 57.0327L474.022 54.8795ZM465.127 57.3157L467.253 63.3766L459.675 65.2823L457.508 59.4025L465.127 57.3157ZM456.469 59.6871L458.628 65.5456L451.262 67.3981L449.07 61.7137L456.469 59.6871ZM448.033 61.9976L450.217 67.6609L443.047 69.4639L440.839 63.9683L448.033 61.9976ZM439.802 64.2523L442.001 69.7268L435.014 71.484L432.796 66.171L439.802 64.2523ZM431.758 66.4553L433.968 71.7472L427.154 73.4607L424.933 68.3248L431.758 66.4553ZM423.889 68.6106L426.101 73.7254L206.486 128.954C201.01 130.329 197.665 135.908 199.029 141.383L273.36 440.304C273.968 442.75 275.453 444.877 277.534 446.288C279.943 447.922 282.942 448.448 285.764 447.74L558.223 379.222L558.731 380.396L274.944 458.124C272.274 458.854 269.432 458.38 267.142 456.831C265.277 455.564 263.926 453.668 263.337 451.489L180.296 145.139C178.93 140.106 181.918 134.883 186.952 133.507L423.889 68.6106ZM559.776 380.11L559.278 378.957L561.94 378.288L562.401 379.391L559.776 380.11ZM563.438 379.107L562.987 378.024L565.617 377.363L565.823 377.877C565.893 378.051 565.958 378.225 566.019 378.4L563.438 379.107ZM566.815 377.481L566.662 377.1L569.23 376.454C569.331 376.784 569.417 377.116 569.488 377.45L567.052 378.117C566.979 377.904 566.9 377.692 566.815 377.481ZM570.524 377.166C570.453 376.84 570.369 376.515 570.271 376.192L572.663 375.591C572.715 375.91 572.752 376.229 572.775 376.55L570.524 377.166ZM573.824 376.262C573.796 375.951 573.756 375.64 573.703 375.329L575.87 374.785C575.873 375.095 575.861 375.404 575.837 375.711L573.824 376.262ZM576.926 375.413C576.94 375.116 576.943 374.817 576.934 374.517L578.819 374.043C578.771 374.345 578.71 374.646 578.635 374.945L576.926 375.413ZM579.802 374.625C579.859 374.339 579.904 374.051 579.938 373.762L581.428 373.387C581.319 373.689 581.195 373.988 581.056 374.282L579.802 374.625ZM582.401 373.826C582.492 373.58 582.574 373.331 582.647 373.08L583.526 372.859C583.38 373.085 583.226 373.304 583.064 373.515C582.847 373.627 582.626 373.731 582.401 373.826ZM492.025 48.8422C491.296 47.5918 490.293 46.5098 489.086 45.6905C486.891 44.2018 484.223 43.6788 481.654 44.2071C481.833 44.609 481.99 45.0243 482.124 45.4516L483.882 51.0726L492.025 48.8422ZM482.853 51.3544L481.107 45.7716C480.967 45.3259 480.8 44.8948 480.605 44.4802L472.489 46.8764L474.716 53.583L482.853 51.3544ZM473.685 53.8655L471.464 47.1789L463.526 49.5224L465.807 56.0233L473.685 53.8655ZM464.773 56.3064L462.5 49.8255L454.815 52.0943L457.138 58.3976L464.773 56.3064ZM456.099 58.6823L453.783 52.3989L446.328 54.6001L448.684 60.713L456.099 58.6823ZM447.648 60.997L445.299 54.9039L438.056 57.0423L440.438 62.9716L447.648 60.997ZM439.401 63.2556L437.027 57.3461L429.98 59.4264L432.382 65.1782L439.401 63.2556ZM431.344 65.4625L428.951 59.7304L422.092 61.7555L424.505 67.3356L431.344 65.4625ZM423.461 67.6215L421.057 62.061L167.155 137.022C164.656 137.762 162.588 139.428 161.334 141.722C160.083 144.013 159.795 146.654 160.526 149.159L252.272 462.935C252.907 465.103 254.281 466.997 256.145 468.257L256.147 468.263C258.571 469.908 261.573 470.374 264.381 469.547L559.59 382.387C559.57 382.338 559.549 382.29 559.528 382.241L559.158 381.386L275.223 459.154C272.251 459.969 269.092 459.444 266.541 457.717C264.467 456.311 262.962 454.198 262.304 451.772L179.267 145.424C177.75 139.821 181.071 134.011 186.674 132.476L423.461 67.6215ZM560.204 381.099L560.512 381.812C560.551 381.902 560.589 381.992 560.626 382.082L563.133 381.341C563.039 381.02 562.931 380.701 562.81 380.385L560.204 381.099ZM563.844 380.102C563.96 380.412 564.064 380.724 564.156 381.039L566.511 380.344C566.461 380.036 566.398 379.729 566.323 379.423L563.844 380.102ZM567.354 379.141C567.428 379.44 567.492 379.739 567.544 380.039L569.726 379.395C569.716 379.099 569.694 378.804 569.66 378.509L567.354 379.141ZM570.705 378.223C570.742 378.509 570.768 378.795 570.784 379.082L572.74 378.505C572.77 378.221 572.79 377.935 572.798 377.65L570.705 378.223ZM573.871 377.356C573.871 377.631 573.861 377.906 573.841 378.18L575.489 377.693C575.565 377.418 575.629 377.14 575.683 376.86L573.871 377.356ZM576.816 376.549C576.777 376.816 576.729 377.081 576.673 377.344L577.889 376.984C578.022 376.712 578.143 376.436 578.25 376.156L576.816 376.549ZM579.501 375.814C579.43 376.043 579.352 376.27 579.266 376.495C579.475 376.403 579.681 376.304 579.882 376.199C580.035 376.002 580.181 375.799 580.32 375.59L579.501 375.814ZM477.166 40.4624C478.368 41.2777 479.356 42.3153 480.093 43.525L472.154 45.8686L470.266 40.1847C470.117 39.7375 469.942 39.3036 469.744 38.8845C472.317 38.4178 474.963 38.9668 477.166 40.4624ZM469.254 40.5242L471.129 46.1711L463.175 48.5194L460.76 41.6347L468.496 39.1932C468.558 39.1739 468.619 39.1551 468.681 39.137C468.902 39.581 469.094 40.0441 469.254 40.5242ZM459.74 41.9565L462.148 48.8224L454.447 51.0959L451.982 44.4048L459.74 41.9565ZM450.957 44.7283L453.415 51.4005L445.944 53.606L443.437 47.1014L450.957 44.7283ZM442.415 47.4239L444.915 53.9098L437.658 56.0524L435.116 49.7272L442.415 47.4239ZM434.095 50.0496L436.629 56.3561L429.569 58.4403L427.001 52.2883L434.095 50.0496ZM425.979 52.6108L428.539 58.7443L421.667 60.7732L419.078 54.7884L425.979 52.6108ZM418.052 55.1124L420.632 61.0787L166.857 135.996C164.082 136.816 161.788 138.669 160.398 141.211C159.009 143.761 158.693 146.689 159.502 149.463L251.248 463.239C251.953 465.645 253.478 467.742 255.548 469.145C258.238 470.97 261.567 471.489 264.681 470.568L559.962 383.394C560.054 383.684 560.136 383.976 560.207 384.27L253.816 480.963C250.868 481.892 247.707 481.432 245.147 479.694L245.145 479.687C243.253 478.41 241.891 476.568 241.208 474.38L140.752 153.175C139.954 150.607 140.195 147.882 141.444 145.496C142.694 143.11 144.793 141.348 147.358 140.537L418.052 55.1124ZM561.233 383.946C561.162 383.659 561.081 383.373 560.991 383.09L563.386 382.383C563.441 382.662 563.486 382.943 563.52 383.224L561.233 383.946ZM564.554 382.898C564.516 382.624 564.469 382.351 564.414 382.079L566.635 381.424C566.653 381.694 566.662 381.964 566.661 382.233L564.554 382.898ZM567.727 381.896C567.721 381.636 567.706 381.375 567.684 381.114L569.708 380.516C569.691 380.777 569.665 381.037 569.629 381.296L567.727 381.896ZM570.747 380.943C570.771 380.694 570.787 380.445 570.796 380.195L572.547 379.678C572.491 379.933 572.426 380.186 572.351 380.437L570.747 380.943ZM573.555 380.057C573.611 379.818 573.66 379.579 573.701 379.338L575.067 378.935C574.962 379.19 574.847 379.442 574.723 379.688L573.555 380.057ZM576.12 379.17C576.199 378.968 576.273 378.764 576.341 378.558L577.105 378.333C576.976 378.521 576.842 378.704 576.701 378.882C576.511 378.984 576.318 379.08 576.12 379.17ZM468.142 38.1873C467.397 37.0234 466.424 36.0218 465.254 35.2288C463.043 33.7299 460.412 33.1539 457.836 33.565C458.052 34.0017 458.242 34.4544 458.405 34.9217L460.407 40.6282L468.142 38.1873ZM459.387 40.95L457.396 35.2742C457.217 34.7622 457.001 34.2692 456.752 33.7977C456.549 33.8528 456.346 33.9142 456.144 33.9819L449.02 36.3685L451.613 43.4033L459.387 40.95ZM450.588 43.7268L448.002 36.7098L440.411 39.2528L443.053 46.1047L450.588 43.7268ZM442.031 46.4271L439.396 39.5928L432.035 42.059L434.717 48.7349L442.031 46.4271ZM433.696 49.0573L431.02 42.3988L423.872 44.7938L426.588 51.3003L433.696 49.0573ZM425.566 51.6228L422.857 45.1337L415.909 47.4613L418.653 53.8044L425.566 51.6228ZM417.626 54.1284L414.89 47.8027L127.56 144.063C122.131 145.882 119.186 151.774 120.988 157.204L230.148 485.835C230.871 488.014 232.255 489.847 234.152 491.133L234.148 491.131C236.847 492.96 240.165 493.416 243.255 492.381L560.502 386.098C560.48 385.837 560.45 385.576 560.411 385.316L254.141 481.971C250.875 483.003 247.382 482.489 244.55 480.572C242.459 479.15 240.951 477.123 240.191 474.7L139.742 153.494C138.849 150.657 139.123 147.636 140.5 144.997C141.882 142.361 144.204 140.409 147.041 139.516L417.626 54.1284ZM561.446 384.989C561.487 385.242 561.521 385.495 561.547 385.748L563.602 385.06C563.61 384.809 563.611 384.559 563.603 384.309L561.446 384.989ZM564.657 383.976C564.67 384.217 564.676 384.459 564.675 384.7L566.507 384.087C566.546 383.846 566.578 383.605 566.603 383.362L564.657 383.976ZM567.704 383.014C567.69 383.246 567.668 383.477 567.641 383.707L569.204 383.183C569.278 382.95 569.344 382.715 569.402 382.478L567.704 383.014ZM570.578 382.107C570.535 382.33 570.486 382.552 570.43 382.772L571.565 382.392C571.641 382.243 571.715 382.093 571.785 381.94C571.823 381.857 571.86 381.775 571.896 381.692L570.578 382.107ZM573.199 381.28C573.133 381.468 573.063 381.654 572.988 381.839C573.169 381.754 573.346 381.664 573.52 381.57C573.653 381.403 573.781 381.232 573.903 381.058L573.199 381.28ZM453.334 29.9902C454.471 30.7611 455.431 31.7267 456.181 32.8437C456.055 32.8814 455.929 32.9212 455.803 32.9633L448.649 35.3602L446.549 29.6612C446.368 29.1731 446.158 28.7006 445.921 28.2458C448.496 27.9045 451.151 28.5103 453.334 29.9902ZM445.54 30.0307L447.63 35.7015L440.024 38.2497L437.255 31.0671L443.783 28.759C444.123 28.6388 444.467 28.5367 444.815 28.4525C445.095 28.9547 445.338 29.4818 445.54 30.0307ZM436.247 31.4236L439.009 38.5897L431.634 41.0608L428.817 34.0508L436.247 31.4236ZM427.809 34.4072L430.619 41.4006L423.457 43.8002L420.6 36.9564L427.809 34.4072ZM419.592 37.3128L422.442 44.1402L415.482 46.4722L412.591 39.7883L419.592 37.3128ZM411.579 40.1462L414.463 46.8137L127.223 143.047C121.24 145.056 117.986 151.555 119.975 157.543L229.136 486.175C229.933 488.582 231.457 490.601 233.551 492.019C236.527 494.036 240.188 494.538 243.599 493.396L560.544 387.21C560.542 387.435 560.534 387.661 560.52 387.886L232.701 503.798C229.515 504.924 225.946 504.463 223.15 502.567C221.252 501.281 219.845 499.45 219.084 497.281L101.216 161.217C100.27 158.53 100.434 155.624 101.668 153.046C102.901 150.472 105.063 148.527 107.759 147.576L411.579 40.1462ZM561.611 387.5C561.618 387.284 561.619 387.068 561.614 386.852L563.506 386.218C563.477 386.435 563.443 386.651 563.402 386.867L561.611 387.5ZM564.549 386.461C564.577 386.256 564.601 386.05 564.62 385.845L566.241 385.302C566.183 385.513 566.118 385.723 566.048 385.931L564.549 386.461ZM567.298 385.489C567.35 385.294 567.397 385.097 567.44 384.9L568.706 384.476C568.61 384.688 568.508 384.895 568.4 385.099L567.298 385.489ZM569.854 384.511C569.92 384.351 569.983 384.19 570.042 384.028L570.696 383.809C570.589 383.957 570.479 384.102 570.365 384.245C570.198 384.338 570.027 384.427 569.854 384.511ZM444.219 27.5054C443.465 26.432 442.52 25.5009 441.414 24.7516C439.225 23.266 436.588 22.6392 434.007 22.9292C434.263 23.4016 434.49 23.8933 434.686 24.4022L436.872 30.0722L443.428 27.7539C443.69 27.6614 443.954 27.5786 444.219 27.5054ZM435.863 30.4288L433.687 24.7831C433.462 24.2015 433.193 23.644 432.883 23.1147C432.388 23.2229 431.898 23.3659 431.416 23.5441L425.481 25.7483L428.419 33.0611L435.863 30.4288ZM427.412 33.4175L424.479 26.1203L417.204 28.8222L420.189 35.9715L427.412 33.4175ZM419.181 36.3279L416.203 29.194L409.143 31.8158L412.167 38.8081L419.181 36.3279ZM411.155 39.166L408.138 32.1892L87.9532 151.097C85.1996 152.124 83.0038 154.159 81.7737 156.828C80.541 159.501 80.4251 162.491 81.4388 165.248L208.014 508.734C208.812 510.898 210.238 512.725 212.14 514.013L212.147 514.012C215.083 516.004 218.82 516.454 222.144 515.219L560.277 389.649C560.318 389.454 560.355 389.259 560.387 389.063L233.054 504.807C229.553 506.049 225.626 505.539 222.553 503.456C220.463 502.04 218.917 500.03 218.08 497.642L100.217 161.581C99.1746 158.618 99.3553 155.424 100.714 152.591C102.076 149.753 104.452 147.614 107.415 146.572L411.155 39.166ZM561.525 388.661C561.503 388.846 561.477 389.03 561.447 389.215L562.913 388.67C562.98 388.483 563.042 388.294 563.099 388.104L561.525 388.661ZM564.319 387.673C564.276 387.849 564.231 388.025 564.181 388.199L565.227 387.811C565.328 387.627 565.423 387.44 565.514 387.25L564.319 387.673ZM566.884 386.766C566.829 386.908 566.772 387.05 566.713 387.19C566.871 387.111 567.027 387.029 567.181 386.942C567.284 386.816 567.384 386.686 567.482 386.554L566.884 386.766ZM429.503 19.5073C430.577 20.2351 431.505 21.1328 432.259 22.1641C431.853 22.2678 431.452 22.3932 431.055 22.5406L425.083 24.7583L422.825 19.1393C422.613 18.61 422.368 18.099 422.091 17.6089C424.677 17.3642 427.302 18.0157 429.503 19.5073ZM421.834 19.5356L424.082 25.1302L416.793 27.837L413.693 20.4117L419.063 18.326C419.681 18.0861 420.312 17.9031 420.95 17.776C421.291 18.3325 421.587 18.9205 421.834 19.5356ZM412.698 20.7982L415.791 28.2089L408.719 30.8353L405.575 23.5647L412.698 20.7982ZM404.576 23.9527L407.714 31.2086L87.5878 150.091C84.5655 151.212 82.1595 153.445 80.8106 156.378C79.4577 159.309 79.3285 162.591 80.4433 165.614L207.019 509.101C207.897 511.475 209.462 513.481 211.548 514.894C214.765 517.077 218.862 517.57 222.511 516.215L559.94 390.906C559.885 391.075 559.826 391.243 559.764 391.41L211.581 526.642C208.118 527.984 204.215 527.544 201.141 525.461L201.14 525.454C199.236 524.159 197.79 522.337 196.956 520.178L61.6712 169.263C59.4275 163.445 62.3384 156.873 68.1561 154.612L404.576 23.9527ZM561.059 390.907C561.105 390.752 561.148 390.597 561.189 390.442L562.342 390.014C562.259 390.182 562.172 390.347 562.081 390.51L561.059 390.907ZM563.69 389.618C563.707 389.577 563.724 389.536 563.74 389.495L564.263 389.3C564.178 389.413 564.091 389.523 564.001 389.632C563.866 389.709 563.729 389.783 563.591 389.855C563.624 389.776 563.658 389.698 563.69 389.618ZM420.303 16.8293C419.549 15.8371 418.637 14.9708 417.592 14.2632C415.381 12.7632 412.765 12.0907 410.175 12.293C410.472 12.7993 410.736 13.328 410.965 13.8763L413.283 19.4308L418.684 17.3336C419.215 17.1273 419.756 16.9593 420.303 16.8293ZM412.288 19.8173L409.98 14.2881C409.71 13.6415 409.387 13.0248 409.014 12.4429C408.233 12.5843 407.46 12.8069 406.707 13.1121L401.896 15.0591L405.152 22.5885L412.288 19.8173ZM404.153 22.9765L400.903 15.4609L48.3592 158.128C45.4745 159.295 43.2199 161.515 41.9979 164.378C40.776 167.24 40.746 170.406 41.9029 173.289L185.893 531.631C186.759 533.782 188.222 535.603 190.134 536.903C193.347 539.083 197.42 539.518 201.021 538.061L558.92 393.219C559.001 393.077 559.079 392.933 559.154 392.787L211.963 527.63C208.171 529.102 203.901 528.618 200.541 526.336C198.457 524.919 196.872 522.928 195.961 520.562L60.6763 169.647C58.2235 163.279 61.4037 156.081 67.7712 153.611L404.153 22.9765ZM560.588 392.23L561.066 392.045C560.996 392.135 560.924 392.225 560.85 392.314C560.722 392.388 560.592 392.46 560.46 392.53C560.504 392.431 560.547 392.331 560.588 392.23ZM405.685 9.02148C406.696 9.70894 407.588 10.5414 408.336 11.4908C407.651 11.6425 406.974 11.8521 406.311 12.1203L401.472 14.0787L399.107 8.60936C398.862 8.04426 398.58 7.49974 398.263 6.97875C400.857 6.8189 403.464 7.51288 405.685 9.02148ZM398.126 9.0406L400.479 14.4805L47.9594 157.15C44.8156 158.424 42.3485 160.845 41.0182 163.973C39.684 167.099 39.6473 170.553 40.9117 173.703L184.901 532.044C185.846 534.392 187.448 536.382 189.534 537.796C193.045 540.176 197.487 540.649 201.421 539.055L557.842 394.812C557.791 394.876 557.739 394.94 557.686 395.003C557.228 395.271 556.749 395.511 556.252 395.72L190.466 549.478C186.722 551.051 182.485 550.631 179.128 548.352L179.124 548.349C177.21 547.053 175.726 545.23 174.829 543.083L22.1304 177.313C19.5924 171.235 22.4779 164.21 28.557 161.651L394.351 7.89817C395.239 7.52412 396.155 7.2625 397.08 7.11149C397.483 7.718 397.834 8.36304 398.126 9.0406ZM396.374 6.15448C395.548 6.32445 394.731 6.57625 393.935 6.91096L28.1388 160.668C21.5169 163.452 18.374 171.11 21.1407 177.732L173.84 543.503C174.816 545.843 176.441 547.825 178.524 549.242C182.181 551.718 186.798 552.177 190.871 550.464L554.967 397.421C554.391 397.796 553.779 398.126 553.135 398.405L179.904 560.89C176.027 562.58 171.617 562.171 168.118 559.798L168.116 559.802C166.198 558.503 164.69 556.683 163.764 554.539L2.35943 181.342C1.05934 178.332 1.00738 174.994 2.21462 171.94C3.42437 168.882 5.74582 166.481 8.75747 165.171L381.987 2.67929C385.866 0.995155 390.272 1.4022 393.774 3.77732C394.757 4.44293 395.631 5.24388 396.374 6.15448Z" fill="#DBEAFE"/>
</svg>
